<?xml version="1.0" encoding="utf-8" standalone="no"?>
<!DOCTYPE svg PUBLIC "-//W3C//DTD SVG 1.1//EN"
  "http://www.w3.org/Graphics/SVG/1.1/DTD/svg11.dtd">
<!-- Created with matplotlib (https://matplotlib.org/) -->
<svg height="262.19625pt" version="1.1" viewBox="0 0 413.251562 262.19625" width="413.251562pt" xmlns="http://www.w3.org/2000/svg" xmlns:xlink="http://www.w3.org/1999/xlink">
 <defs>
  <style type="text/css">
*{stroke-linecap:butt;stroke-linejoin:round;}
  </style>
 </defs>
 <g id="figure_1">
  <g id="patch_1">
   <path d="M 0 262.19625 
L 413.251562 262.19625 
L 413.251562 0 
L 0 0 
z
" style="fill:none;"/>
  </g>
  <g id="axes_1">
   <g id="patch_2">
    <path d="M 61.707813 224.64 
L 396.507812 224.64 
L 396.507812 7.2 
L 61.707813 7.2 
z
" style="fill:#ffffff;"/>
   </g>
   <g id="matplotlib.axis_1">
    <g id="xtick_1">
     <g id="line2d_1">
      <defs>
       <path d="M 0 0 
L 0 3.5 
" id="m9d8d9d5086" style="stroke:#000000;stroke-width:0.8;"/>
      </defs>
      <g>
       <use style="stroke:#000000;stroke-width:0.8;" x="128.131059" xlink:href="#m9d8d9d5086" y="224.64"/>
      </g>
     </g>
     <g id="text_1">
      <!-- 100 -->
      <defs>
       <path d="M 12.40625 8.296875 
L 28.515625 8.296875 
L 28.515625 63.921875 
L 10.984375 60.40625 
L 10.984375 69.390625 
L 28.421875 72.90625 
L 38.28125 72.90625 
L 38.28125 8.296875 
L 54.390625 8.296875 
L 54.390625 0 
L 12.40625 0 
z
" id="DejaVuSans-49"/>
       <path d="M 31.78125 66.40625 
Q 24.171875 66.40625 20.328125 58.90625 
Q 16.5 51.421875 16.5 36.375 
Q 16.5 21.390625 20.328125 13.890625 
Q 24.171875 6.390625 31.78125 6.390625 
Q 39.453125 6.390625 43.28125 13.890625 
Q 47.125 21.390625 47.125 36.375 
Q 47.125 51.421875 43.28125 58.90625 
Q 39.453125 66.40625 31.78125 66.40625 
z
M 31.78125 74.21875 
Q 44.046875 74.21875 50.515625 64.515625 
Q 56.984375 54.828125 56.984375 36.375 
Q 56.984375 17.96875 50.515625 8.265625 
Q 44.046875 -1.421875 31.78125 -1.421875 
Q 19.53125 -1.421875 13.0625 8.265625 
Q 6.59375 17.96875 6.59375 36.375 
Q 6.59375 54.828125 13.0625 64.515625 
Q 19.53125 74.21875 31.78125 74.21875 
z
" id="DejaVuSans-48"/>
      </defs>
      <g transform="translate(118.587309 239.238438)scale(0.1 -0.1)">
       <use xlink:href="#DejaVuSans-49"/>
       <use x="63.623047" xlink:href="#DejaVuSans-48"/>
       <use x="127.246094" xlink:href="#DejaVuSans-48"/>
      </g>
     </g>
    </g>
    <g id="xtick_2">
     <g id="line2d_2">
      <g>
       <use style="stroke:#000000;stroke-width:0.8;" x="195.225247" xlink:href="#m9d8d9d5086" y="224.64"/>
      </g>
     </g>
     <g id="text_2">
      <!-- 200 -->
      <defs>
       <path d="M 19.1875 8.296875 
L 53.609375 8.296875 
L 53.609375 0 
L 7.328125 0 
L 7.328125 8.296875 
Q 12.9375 14.109375 22.625 23.890625 
Q 32.328125 33.6875 34.8125 36.53125 
Q 39.546875 41.84375 41.421875 45.53125 
Q 43.3125 49.21875 43.3125 52.78125 
Q 43.3125 58.59375 39.234375 62.25 
Q 35.15625 65.921875 28.609375 65.921875 
Q 23.96875 65.921875 18.8125 64.3125 
Q 13.671875 62.703125 7.8125 59.421875 
L 7.8125 69.390625 
Q 13.765625 71.78125 18.9375 73 
Q 24.125 74.21875 28.421875 74.21875 
Q 39.75 74.21875 46.484375 68.546875 
Q 53.21875 62.890625 53.21875 53.421875 
Q 53.21875 48.921875 51.53125 44.890625 
Q 49.859375 40.875 45.40625 35.40625 
Q 44.1875 33.984375 37.640625 27.21875 
Q 31.109375 20.453125 19.1875 8.296875 
z
" id="DejaVuSans-50"/>
      </defs>
      <g transform="translate(185.681497 239.238438)scale(0.1 -0.1)">
       <use xlink:href="#DejaVuSans-50"/>
       <use x="63.623047" xlink:href="#DejaVuSans-48"/>
       <use x="127.246094" xlink:href="#DejaVuSans-48"/>
      </g>
     </g>
    </g>
    <g id="xtick_3">
     <g id="line2d_3">
      <g>
       <use style="stroke:#000000;stroke-width:0.8;" x="262.319436" xlink:href="#m9d8d9d5086" y="224.64"/>
      </g>
     </g>
     <g id="text_3">
      <!-- 300 -->
      <defs>
       <path d="M 40.578125 39.3125 
Q 47.65625 37.796875 51.625 33 
Q 55.609375 28.21875 55.609375 21.1875 
Q 55.609375 10.40625 48.1875 4.484375 
Q 40.765625 -1.421875 27.09375 -1.421875 
Q 22.515625 -1.421875 17.65625 -0.515625 
Q 12.796875 0.390625 7.625 2.203125 
L 7.625 11.71875 
Q 11.71875 9.328125 16.59375 8.109375 
Q 21.484375 6.890625 26.8125 6.890625 
Q 36.078125 6.890625 40.9375 10.546875 
Q 45.796875 14.203125 45.796875 21.1875 
Q 45.796875 27.640625 41.28125 31.265625 
Q 36.765625 34.90625 28.71875 34.90625 
L 20.21875 34.90625 
L 20.21875 43.015625 
L 29.109375 43.015625 
Q 36.375 43.015625 40.234375 45.921875 
Q 44.09375 48.828125 44.09375 54.296875 
Q 44.09375 59.90625 40.109375 62.90625 
Q 36.140625 65.921875 28.71875 65.921875 
Q 24.65625 65.921875 20.015625 65.03125 
Q 15.375 64.15625 9.8125 62.3125 
L 9.8125 71.09375 
Q 15.4375 72.65625 20.34375 73.4375 
Q 25.25 74.21875 29.59375 74.21875 
Q 40.828125 74.21875 47.359375 69.109375 
Q 53.90625 64.015625 53.90625 55.328125 
Q 53.90625 49.265625 50.4375 45.09375 
Q 46.96875 40.921875 40.578125 39.3125 
z
" id="DejaVuSans-51"/>
      </defs>
      <g transform="translate(252.775686 239.238438)scale(0.1 -0.1)">
       <use xlink:href="#DejaVuSans-51"/>
       <use x="63.623047" xlink:href="#DejaVuSans-48"/>
       <use x="127.246094" xlink:href="#DejaVuSans-48"/>
      </g>
     </g>
    </g>
    <g id="xtick_4">
     <g id="line2d_4">
      <g>
       <use style="stroke:#000000;stroke-width:0.8;" x="329.413624" xlink:href="#m9d8d9d5086" y="224.64"/>
      </g>
     </g>
     <g id="text_4">
      <!-- 400 -->
      <defs>
       <path d="M 37.796875 64.3125 
L 12.890625 25.390625 
L 37.796875 25.390625 
z
M 35.203125 72.90625 
L 47.609375 72.90625 
L 47.609375 25.390625 
L 58.015625 25.390625 
L 58.015625 17.1875 
L 47.609375 17.1875 
L 47.609375 0 
L 37.796875 0 
L 37.796875 17.1875 
L 4.890625 17.1875 
L 4.890625 26.703125 
z
" id="DejaVuSans-52"/>
      </defs>
      <g transform="translate(319.869874 239.238438)scale(0.1 -0.1)">
       <use xlink:href="#DejaVuSans-52"/>
       <use x="63.623047" xlink:href="#DejaVuSans-48"/>
       <use x="127.246094" xlink:href="#DejaVuSans-48"/>
      </g>
     </g>
    </g>
    <g id="xtick_5">
     <g id="line2d_5">
      <g>
       <use style="stroke:#000000;stroke-width:0.8;" x="396.507812" xlink:href="#m9d8d9d5086" y="224.64"/>
      </g>
     </g>
     <g id="text_5">
      <!-- 500 -->
      <defs>
       <path d="M 10.796875 72.90625 
L 49.515625 72.90625 
L 49.515625 64.59375 
L 19.828125 64.59375 
L 19.828125 46.734375 
Q 21.96875 47.46875 24.109375 47.828125 
Q 26.265625 48.1875 28.421875 48.1875 
Q 40.625 48.1875 47.75 41.5 
Q 54.890625 34.8125 54.890625 23.390625 
Q 54.890625 11.625 47.5625 5.09375 
Q 40.234375 -1.421875 26.90625 -1.421875 
Q 22.3125 -1.421875 17.546875 -0.640625 
Q 12.796875 0.140625 7.71875 1.703125 
L 7.71875 11.625 
Q 12.109375 9.234375 16.796875 8.0625 
Q 21.484375 6.890625 26.703125 6.890625 
Q 35.15625 6.890625 40.078125 11.328125 
Q 45.015625 15.765625 45.015625 23.390625 
Q 45.015625 31 40.078125 35.4375 
Q 35.15625 39.890625 26.703125 39.890625 
Q 22.75 39.890625 18.8125 39.015625 
Q 14.890625 38.140625 10.796875 36.28125 
z
" id="DejaVuSans-53"/>
      </defs>
      <g transform="translate(386.964063 239.238438)scale(0.1 -0.1)">
       <use xlink:href="#DejaVuSans-53"/>
       <use x="63.623047" xlink:href="#DejaVuSans-48"/>
       <use x="127.246094" xlink:href="#DejaVuSans-48"/>
      </g>
     </g>
    </g>
    <g id="text_6">
     <!-- Episode -->
     <defs>
      <path d="M 9.8125 72.90625 
L 55.90625 72.90625 
L 55.90625 64.59375 
L 19.671875 64.59375 
L 19.671875 43.015625 
L 54.390625 43.015625 
L 54.390625 34.71875 
L 19.671875 34.71875 
L 19.671875 8.296875 
L 56.78125 8.296875 
L 56.78125 0 
L 9.8125 0 
z
" id="DejaVuSans-69"/>
      <path d="M 18.109375 8.203125 
L 18.109375 -20.796875 
L 9.078125 -20.796875 
L 9.078125 54.6875 
L 18.109375 54.6875 
L 18.109375 46.390625 
Q 20.953125 51.265625 25.265625 53.625 
Q 29.59375 56 35.59375 56 
Q 45.5625 56 51.78125 48.09375 
Q 58.015625 40.1875 58.015625 27.296875 
Q 58.015625 14.40625 51.78125 6.484375 
Q 45.5625 -1.421875 35.59375 -1.421875 
Q 29.59375 -1.421875 25.265625 0.953125 
Q 20.953125 3.328125 18.109375 8.203125 
z
M 48.6875 27.296875 
Q 48.6875 37.203125 44.609375 42.84375 
Q 40.53125 48.484375 33.40625 48.484375 
Q 26.265625 48.484375 22.1875 42.84375 
Q 18.109375 37.203125 18.109375 27.296875 
Q 18.109375 17.390625 22.1875 11.75 
Q 26.265625 6.109375 33.40625 6.109375 
Q 40.53125 6.109375 44.609375 11.75 
Q 48.6875 17.390625 48.6875 27.296875 
z
" id="DejaVuSans-112"/>
      <path d="M 9.421875 54.6875 
L 18.40625 54.6875 
L 18.40625 0 
L 9.421875 0 
z
M 9.421875 75.984375 
L 18.40625 75.984375 
L 18.40625 64.59375 
L 9.421875 64.59375 
z
" id="DejaVuSans-105"/>
      <path d="M 44.28125 53.078125 
L 44.28125 44.578125 
Q 40.484375 46.53125 36.375 47.5 
Q 32.28125 48.484375 27.875 48.484375 
Q 21.1875 48.484375 17.84375 46.4375 
Q 14.5 44.390625 14.5 40.28125 
Q 14.5 37.15625 16.890625 35.375 
Q 19.28125 33.59375 26.515625 31.984375 
L 29.59375 31.296875 
Q 39.15625 29.25 43.1875 25.515625 
Q 47.21875 21.78125 47.21875 15.09375 
Q 47.21875 7.46875 41.1875 3.015625 
Q 35.15625 -1.421875 24.609375 -1.421875 
Q 20.21875 -1.421875 15.453125 -0.5625 
Q 10.6875 0.296875 5.421875 2 
L 5.421875 11.28125 
Q 10.40625 8.6875 15.234375 7.390625 
Q 20.0625 6.109375 24.8125 6.109375 
Q 31.15625 6.109375 34.5625 8.28125 
Q 37.984375 10.453125 37.984375 14.40625 
Q 37.984375 18.0625 35.515625 20.015625 
Q 33.0625 21.96875 24.703125 23.78125 
L 21.578125 24.515625 
Q 13.234375 26.265625 9.515625 29.90625 
Q 5.8125 33.546875 5.8125 39.890625 
Q 5.8125 47.609375 11.28125 51.796875 
Q 16.75 56 26.8125 56 
Q 31.78125 56 36.171875 55.265625 
Q 40.578125 54.546875 44.28125 53.078125 
z
" id="DejaVuSans-115"/>
      <path d="M 30.609375 48.390625 
Q 23.390625 48.390625 19.1875 42.75 
Q 14.984375 37.109375 14.984375 27.296875 
Q 14.984375 17.484375 19.15625 11.84375 
Q 23.34375 6.203125 30.609375 6.203125 
Q 37.796875 6.203125 41.984375 11.859375 
Q 46.1875 17.53125 46.1875 27.296875 
Q 46.1875 37.015625 41.984375 42.703125 
Q 37.796875 48.390625 30.609375 48.390625 
z
M 30.609375 56 
Q 42.328125 56 49.015625 48.375 
Q 55.71875 40.765625 55.71875 27.296875 
Q 55.71875 13.875 49.015625 6.21875 
Q 42.328125 -1.421875 30.609375 -1.421875 
Q 18.84375 -1.421875 12.171875 6.21875 
Q 5.515625 13.875 5.515625 27.296875 
Q 5.515625 40.765625 12.171875 48.375 
Q 18.84375 56 30.609375 56 
z
" id="DejaVuSans-111"/>
      <path d="M 45.40625 46.390625 
L 45.40625 75.984375 
L 54.390625 75.984375 
L 54.390625 0 
L 45.40625 0 
L 45.40625 8.203125 
Q 42.578125 3.328125 38.25 0.953125 
Q 33.9375 -1.421875 27.875 -1.421875 
Q 17.96875 -1.421875 11.734375 6.484375 
Q 5.515625 14.40625 5.515625 27.296875 
Q 5.515625 40.1875 11.734375 48.09375 
Q 17.96875 56 27.875 56 
Q 33.9375 56 38.25 53.625 
Q 42.578125 51.265625 45.40625 46.390625 
z
M 14.796875 27.296875 
Q 14.796875 17.390625 18.875 11.75 
Q 22.953125 6.109375 30.078125 6.109375 
Q 37.203125 6.109375 41.296875 11.75 
Q 45.40625 17.390625 45.40625 27.296875 
Q 45.40625 37.203125 41.296875 42.84375 
Q 37.203125 48.484375 30.078125 48.484375 
Q 22.953125 48.484375 18.875 42.84375 
Q 14.796875 37.203125 14.796875 27.296875 
z
" id="DejaVuSans-100"/>
      <path d="M 56.203125 29.59375 
L 56.203125 25.203125 
L 14.890625 25.203125 
Q 15.484375 15.921875 20.484375 11.0625 
Q 25.484375 6.203125 34.421875 6.203125 
Q 39.59375 6.203125 44.453125 7.46875 
Q 49.3125 8.734375 54.109375 11.28125 
L 54.109375 2.78125 
Q 49.265625 0.734375 44.1875 -0.34375 
Q 39.109375 -1.421875 33.890625 -1.421875 
Q 20.796875 -1.421875 13.15625 6.1875 
Q 5.515625 13.8125 5.515625 26.8125 
Q 5.515625 40.234375 12.765625 48.109375 
Q 20.015625 56 32.328125 56 
Q 43.359375 56 49.78125 48.890625 
Q 56.203125 41.796875 56.203125 29.59375 
z
M 47.21875 32.234375 
Q 47.125 39.59375 43.09375 43.984375 
Q 39.0625 48.390625 32.421875 48.390625 
Q 24.90625 48.390625 20.390625 44.140625 
Q 15.875 39.890625 15.1875 32.171875 
z
" id="DejaVuSans-101"/>
     </defs>
     <g transform="translate(209.470313 252.916563)scale(0.1 -0.1)">
      <use xlink:href="#DejaVuSans-69"/>
      <use x="63.183594" xlink:href="#DejaVuSans-112"/>
      <use x="126.660156" xlink:href="#DejaVuSans-105"/>
      <use x="154.443359" xlink:href="#DejaVuSans-115"/>
      <use x="206.542969" xlink:href="#DejaVuSans-111"/>
      <use x="267.724609" xlink:href="#DejaVuSans-100"/>
      <use x="331.201172" xlink:href="#DejaVuSans-101"/>
     </g>
    </g>
   </g>
   <g id="matplotlib.axis_2">
    <g id="ytick_1">
     <g id="line2d_6">
      <defs>
       <path d="M 0 0 
L -3.5 0 
" id="m63c5704226" style="stroke:#000000;stroke-width:0.8;"/>
      </defs>
      <g>
       <use style="stroke:#000000;stroke-width:0.8;" x="61.707813" xlink:href="#m63c5704226" y="196.381757"/>
      </g>
     </g>
     <g id="text_7">
      <!-- −1500 -->
      <defs>
       <path d="M 10.59375 35.5 
L 73.1875 35.5 
L 73.1875 27.203125 
L 10.59375 27.203125 
z
" id="DejaVuSans-8722"/>
      </defs>
      <g transform="translate(20.878125 200.180975)scale(0.1 -0.1)">
       <use xlink:href="#DejaVuSans-8722"/>
       <use x="83.789062" xlink:href="#DejaVuSans-49"/>
       <use x="147.412109" xlink:href="#DejaVuSans-53"/>
       <use x="211.035156" xlink:href="#DejaVuSans-48"/>
       <use x="274.658203" xlink:href="#DejaVuSans-48"/>
      </g>
     </g>
    </g>
    <g id="ytick_2">
     <g id="line2d_7">
      <g>
       <use style="stroke:#000000;stroke-width:0.8;" x="61.707813" xlink:href="#m63c5704226" y="166.489983"/>
      </g>
     </g>
     <g id="text_8">
      <!-- −1250 -->
      <g transform="translate(20.878125 170.289202)scale(0.1 -0.1)">
       <use xlink:href="#DejaVuSans-8722"/>
       <use x="83.789062" xlink:href="#DejaVuSans-49"/>
       <use x="147.412109" xlink:href="#DejaVuSans-50"/>
       <use x="211.035156" xlink:href="#DejaVuSans-53"/>
       <use x="274.658203" xlink:href="#DejaVuSans-48"/>
      </g>
     </g>
    </g>
    <g id="ytick_3">
     <g id="line2d_8">
      <g>
       <use style="stroke:#000000;stroke-width:0.8;" x="61.707813" xlink:href="#m63c5704226" y="136.59821"/>
      </g>
     </g>
     <g id="text_9">
      <!-- −1000 -->
      <g transform="translate(20.878125 140.397429)scale(0.1 -0.1)">
       <use xlink:href="#DejaVuSans-8722"/>
       <use x="83.789062" xlink:href="#DejaVuSans-49"/>
       <use x="147.412109" xlink:href="#DejaVuSans-48"/>
       <use x="211.035156" xlink:href="#DejaVuSans-48"/>
       <use x="274.658203" xlink:href="#DejaVuSans-48"/>
      </g>
     </g>
    </g>
    <g id="ytick_4">
     <g id="line2d_9">
      <g>
       <use style="stroke:#000000;stroke-width:0.8;" x="61.707813" xlink:href="#m63c5704226" y="106.706437"/>
      </g>
     </g>
     <g id="text_10">
      <!-- −750 -->
      <defs>
       <path d="M 8.203125 72.90625 
L 55.078125 72.90625 
L 55.078125 68.703125 
L 28.609375 0 
L 18.3125 0 
L 43.21875 64.59375 
L 8.203125 64.59375 
z
" id="DejaVuSans-55"/>
      </defs>
      <g transform="translate(27.240625 110.505656)scale(0.1 -0.1)">
       <use xlink:href="#DejaVuSans-8722"/>
       <use x="83.789062" xlink:href="#DejaVuSans-55"/>
       <use x="147.412109" xlink:href="#DejaVuSans-53"/>
       <use x="211.035156" xlink:href="#DejaVuSans-48"/>
      </g>
     </g>
    </g>
    <g id="ytick_5">
     <g id="line2d_10">
      <g>
       <use style="stroke:#000000;stroke-width:0.8;" x="61.707813" xlink:href="#m63c5704226" y="76.814664"/>
      </g>
     </g>
     <g id="text_11">
      <!-- −500 -->
      <g transform="translate(27.240625 80.613883)scale(0.1 -0.1)">
       <use xlink:href="#DejaVuSans-8722"/>
       <use x="83.789062" xlink:href="#DejaVuSans-53"/>
       <use x="147.412109" xlink:href="#DejaVuSans-48"/>
       <use x="211.035156" xlink:href="#DejaVuSans-48"/>
      </g>
     </g>
    </g>
    <g id="ytick_6">
     <g id="line2d_11">
      <g>
       <use style="stroke:#000000;stroke-width:0.8;" x="61.707813" xlink:href="#m63c5704226" y="46.922891"/>
      </g>
     </g>
     <g id="text_12">
      <!-- −250 -->
      <g transform="translate(27.240625 50.72211)scale(0.1 -0.1)">
       <use xlink:href="#DejaVuSans-8722"/>
       <use x="83.789062" xlink:href="#DejaVuSans-50"/>
       <use x="147.412109" xlink:href="#DejaVuSans-53"/>
       <use x="211.035156" xlink:href="#DejaVuSans-48"/>
      </g>
     </g>
    </g>
    <g id="ytick_7">
     <g id="line2d_12">
      <g>
       <use style="stroke:#000000;stroke-width:0.8;" x="61.707813" xlink:href="#m63c5704226" y="17.031118"/>
      </g>
     </g>
     <g id="text_13">
      <!-- 0 -->
      <g transform="translate(48.345313 20.830337)scale(0.1 -0.1)">
       <use xlink:href="#DejaVuSans-48"/>
      </g>
     </g>
    </g>
    <g id="text_14">
     <!-- Reward -->
     <defs>
      <path d="M 44.390625 34.1875 
Q 47.5625 33.109375 50.5625 29.59375 
Q 53.5625 26.078125 56.59375 19.921875 
L 66.609375 0 
L 56 0 
L 46.6875 18.703125 
Q 43.0625 26.03125 39.671875 28.421875 
Q 36.28125 30.8125 30.421875 30.8125 
L 19.671875 30.8125 
L 19.671875 0 
L 9.8125 0 
L 9.8125 72.90625 
L 32.078125 72.90625 
Q 44.578125 72.90625 50.734375 67.671875 
Q 56.890625 62.453125 56.890625 51.90625 
Q 56.890625 45.015625 53.6875 40.46875 
Q 50.484375 35.9375 44.390625 34.1875 
z
M 19.671875 64.796875 
L 19.671875 38.921875 
L 32.078125 38.921875 
Q 39.203125 38.921875 42.84375 42.21875 
Q 46.484375 45.515625 46.484375 51.90625 
Q 46.484375 58.296875 42.84375 61.546875 
Q 39.203125 64.796875 32.078125 64.796875 
z
" id="DejaVuSans-82"/>
      <path d="M 4.203125 54.6875 
L 13.1875 54.6875 
L 24.421875 12.015625 
L 35.59375 54.6875 
L 46.1875 54.6875 
L 57.421875 12.015625 
L 68.609375 54.6875 
L 77.59375 54.6875 
L 63.28125 0 
L 52.6875 0 
L 40.921875 44.828125 
L 29.109375 0 
L 18.5 0 
z
" id="DejaVuSans-119"/>
      <path d="M 34.28125 27.484375 
Q 23.390625 27.484375 19.1875 25 
Q 14.984375 22.515625 14.984375 16.5 
Q 14.984375 11.71875 18.140625 8.90625 
Q 21.296875 6.109375 26.703125 6.109375 
Q 34.1875 6.109375 38.703125 11.40625 
Q 43.21875 16.703125 43.21875 25.484375 
L 43.21875 27.484375 
z
M 52.203125 31.203125 
L 52.203125 0 
L 43.21875 0 
L 43.21875 8.296875 
Q 40.140625 3.328125 35.546875 0.953125 
Q 30.953125 -1.421875 24.3125 -1.421875 
Q 15.921875 -1.421875 10.953125 3.296875 
Q 6 8.015625 6 15.921875 
Q 6 25.140625 12.171875 29.828125 
Q 18.359375 34.515625 30.609375 34.515625 
L 43.21875 34.515625 
L 43.21875 35.40625 
Q 43.21875 41.609375 39.140625 45 
Q 35.0625 48.390625 27.6875 48.390625 
Q 23 48.390625 18.546875 47.265625 
Q 14.109375 46.140625 10.015625 43.890625 
L 10.015625 52.203125 
Q 14.9375 54.109375 19.578125 55.046875 
Q 24.21875 56 28.609375 56 
Q 40.484375 56 46.34375 49.84375 
Q 52.203125 43.703125 52.203125 31.203125 
z
" id="DejaVuSans-97"/>
      <path d="M 41.109375 46.296875 
Q 39.59375 47.171875 37.8125 47.578125 
Q 36.03125 48 33.890625 48 
Q 26.265625 48 22.1875 43.046875 
Q 18.109375 38.09375 18.109375 28.8125 
L 18.109375 0 
L 9.078125 0 
L 9.078125 54.6875 
L 18.109375 54.6875 
L 18.109375 46.1875 
Q 20.953125 51.171875 25.484375 53.578125 
Q 30.03125 56 36.53125 56 
Q 37.453125 56 38.578125 55.875 
Q 39.703125 55.765625 41.0625 55.515625 
z
" id="DejaVuSans-114"/>
     </defs>
     <g transform="translate(14.798438 134.849688)rotate(-90)scale(0.1 -0.1)">
      <use xlink:href="#DejaVuSans-82"/>
      <use x="69.419922" xlink:href="#DejaVuSans-101"/>
      <use x="130.943359" xlink:href="#DejaVuSans-119"/>
      <use x="212.730469" xlink:href="#DejaVuSans-97"/>
      <use x="274.009766" xlink:href="#DejaVuSans-114"/>
      <use x="315.107422" xlink:href="#DejaVuSans-100"/>
     </g>
    </g>
   </g>
   <g id="line2d_13">
    <path clip-path="url(#p54c5912233)" d="M 61.036871 197.739345 
L 61.707813 144.89558 
L 62.378754 195.349602 
L 63.049696 211.764058 
L 63.720638 214.756364 
L 64.39158 214.688842 
L 65.062522 198.658768 
L 65.733464 160.272981 
L 66.404406 200.122056 
L 67.075348 157.714307 
L 67.746289 149.904755 
L 68.417231 93.645048 
L 69.088173 121.404311 
L 69.759115 131.008113 
L 70.430057 115.265732 
L 71.100999 103.267283 
L 71.771941 135.769358 
L 72.442883 130.877425 
L 73.113825 152.825983 
L 73.784766 169.757101 
L 75.12665 157.536221 
L 75.797592 160.480844 
L 76.468534 123.411645 
L 77.139476 181.417053 
L 77.810418 203.205945 
L 78.48136 198.107791 
L 79.152301 205.515178 
L 79.823243 107.367414 
L 80.494185 120.143738 
L 81.165127 106.041684 
L 81.836069 83.510078 
L 82.507011 78.421678 
L 83.177953 75.171158 
L 83.848895 76.836317 
L 84.519837 90.427527 
L 85.190778 79.160788 
L 85.86172 78.771953 
L 86.532662 106.012748 
L 87.203604 89.840431 
L 87.874546 97.622504 
L 88.545488 90.759892 
L 89.21643 90.553058 
L 89.887372 78.470333 
L 90.558314 80.163905 
L 91.229255 77.617577 
L 91.900197 86.598791 
L 92.571139 77.345669 
L 93.242081 91.641142 
L 93.913023 76.892026 
L 94.583965 90.803311 
L 95.254907 70.027335 
L 95.925849 77.028401 
L 96.59679 90.095133 
L 97.267732 63.370547 
L 97.938674 76.259938 
L 99.280558 48.340215 
L 99.9515 60.652336 
L 100.622442 47.521751 
L 101.293384 73.997623 
L 101.964326 31.536917 
L 102.635267 45.95471 
L 103.306209 46.151503 
L 103.977151 17.651408 
L 104.648093 45.074616 
L 105.319035 45.73036 
L 105.989977 47.012644 
L 106.660919 31.389157 
L 107.331861 66.737066 
L 108.002802 61.121795 
L 108.673744 72.914471 
L 110.015628 17.177465 
L 110.68657 47.166328 
L 111.357512 61.082502 
L 112.028454 31.506149 
L 112.699396 32.076471 
L 113.370338 45.50789 
L 114.041279 46.502374 
L 115.383163 74.079311 
L 116.054105 45.663717 
L 116.725047 32.183865 
L 118.066931 56.723033 
L 118.737873 32.077972 
L 119.408815 44.43565 
L 120.079756 30.851184 
L 120.750698 45.766038 
L 121.42164 31.083453 
L 122.092582 47.105591 
L 122.763524 32.52133 
L 123.434466 31.1312 
L 124.105408 31.709847 
L 124.77635 47.111791 
L 125.447291 32.144696 
L 126.118233 47.10316 
L 126.789175 45.075712 
L 127.460117 31.406875 
L 128.131059 31.286631 
L 128.802001 17.127609 
L 129.472943 47.121192 
L 130.143885 32.027965 
L 131.485768 60.30319 
L 132.827652 31.875727 
L 133.498594 47.002936 
L 134.169536 45.514131 
L 134.840478 32.055657 
L 135.51142 67.721791 
L 136.182362 46.339509 
L 136.853303 32.000979 
L 137.524245 44.635512 
L 138.866129 46.428675 
L 139.537071 45.307038 
L 140.208013 17.138441 
L 141.549897 46.028142 
L 142.220839 31.826575 
L 142.89178 31.544958 
L 143.562722 31.057226 
L 144.233664 31.982394 
L 144.904606 46.004446 
L 145.575548 46.391055 
L 146.24649 32.422271 
L 146.917432 31.042561 
L 147.588374 31.783101 
L 148.259316 32.011699 
L 148.930257 31.977896 
L 149.601199 31.73342 
L 150.272141 76.0873 
L 150.943083 44.035664 
L 151.614025 47.290727 
L 152.284967 17.257103 
L 152.955909 32.012438 
L 153.626851 31.725239 
L 154.297792 31.853172 
L 154.968734 61.906805 
L 155.639676 31.485361 
L 156.310618 44.433363 
L 156.98156 47.247688 
L 157.652502 59.346804 
L 158.323444 17.231421 
L 160.336269 60.233074 
L 161.007211 32.022498 
L 161.678153 74.090271 
L 162.349095 65.982055 
L 163.020037 45.741597 
L 163.690979 61.086435 
L 164.361921 17.123672 
L 165.032863 32.146084 
L 165.703804 57.223052 
L 166.374746 17.107597 
L 167.71663 45.245781 
L 168.387572 31.947621 
L 169.058514 61.168251 
L 169.729456 31.518194 
L 170.400398 45.98648 
L 171.07134 46.724462 
L 171.742281 30.978625 
L 172.413223 31.464091 
L 173.084165 59.116271 
L 173.755107 44.668939 
L 174.426049 45.873213 
L 175.096991 17.162748 
L 175.767933 31.220706 
L 176.438875 32.154804 
L 177.109817 30.796743 
L 177.780758 31.301744 
L 178.4517 78.136656 
L 179.122642 44.662382 
L 179.793584 31.543319 
L 180.464526 56.40014 
L 181.135468 17.293893 
L 181.80641 45.361556 
L 182.477352 17.561258 
L 183.148293 31.230941 
L 183.819235 31.047554 
L 184.490177 31.482783 
L 185.161119 31.691906 
L 185.832061 31.422067 
L 186.503003 45.56401 
L 187.173945 31.870686 
L 187.844887 46.091415 
L 188.515829 31.97938 
L 189.18677 31.274419 
L 189.857712 32.147469 
L 190.528654 17.37025 
L 191.199596 46.163274 
L 191.870538 32.109093 
L 193.212422 32.043386 
L 193.883364 31.811664 
L 194.554305 45.698275 
L 195.225247 32.626004 
L 195.896189 46.388819 
L 196.567131 31.519561 
L 197.238073 61.604813 
L 197.909015 45.155232 
L 198.579957 59.677788 
L 199.250899 32.150025 
L 199.921841 32.250336 
L 200.592782 59.446364 
L 201.263724 17.694678 
L 201.934666 57.825217 
L 203.27655 32.140067 
L 203.947492 32.136924 
L 204.618434 45.635395 
L 205.289376 32.275225 
L 205.960318 32.233224 
L 206.631259 17.509218 
L 207.973143 46.387373 
L 208.644085 32.077181 
L 209.315027 31.365825 
L 209.985969 46.17069 
L 210.656911 45.735526 
L 211.327853 32.207045 
L 211.998794 31.674774 
L 212.669736 59.231877 
L 214.01162 31.993374 
L 214.682562 32.17705 
L 215.353504 59.642973 
L 216.024446 58.670481 
L 216.695388 46.248468 
L 217.36633 59.165398 
L 218.708213 32.071376 
L 219.379155 31.731873 
L 220.050097 31.808289 
L 220.721039 60.805644 
L 221.391981 32.011114 
L 222.062923 31.512571 
L 222.733865 58.844362 
L 223.404806 44.831989 
L 224.075748 55.82658 
L 224.74669 52.511859 
L 225.417632 45.156868 
L 226.088574 32.394144 
L 226.759516 31.622711 
L 227.430458 32.159574 
L 228.1014 31.431919 
L 228.772342 31.655109 
L 229.443283 45.295398 
L 230.114225 31.867234 
L 230.785167 46.181533 
L 231.456109 31.644953 
L 232.127051 61.599633 
L 232.797993 32.355366 
L 233.468935 31.659941 
L 234.139877 32.142635 
L 235.48176 120.366524 
L 236.152702 106.381331 
L 236.823644 106.222231 
L 237.494586 46.940084 
L 238.83647 17.515934 
L 239.507412 32.05362 
L 240.178354 31.111643 
L 240.849295 31.628059 
L 241.520237 17.516018 
L 242.191179 31.305967 
L 242.862121 17.754453 
L 243.533063 32.057523 
L 244.204005 31.390377 
L 244.874947 31.682146 
L 245.545889 44.759806 
L 246.216831 31.578485 
L 246.887772 31.372241 
L 247.558714 31.444957 
L 248.229656 46.457338 
L 248.900598 31.901267 
L 249.57154 31.374977 
L 250.242482 46.214929 
L 250.913424 31.964483 
L 251.584366 58.242131 
L 252.255307 31.546874 
L 252.926249 17.163122 
L 254.939075 59.706523 
L 255.610017 31.060073 
L 256.280959 61.308103 
L 256.951901 46.146861 
L 257.622843 60.850495 
L 258.293784 32.303182 
L 258.964726 31.226086 
L 259.635668 17.159065 
L 260.30661 31.186589 
L 260.977552 31.002028 
L 261.648494 56.638084 
L 262.319436 32.111115 
L 262.990378 31.068976 
L 263.66132 44.330957 
L 264.332261 17.138229 
L 265.674145 45.486731 
L 266.345087 31.0616 
L 267.016029 30.980099 
L 267.686971 17.135447 
L 268.357913 31.353626 
L 269.028855 31.100513 
L 269.699796 31.972711 
L 270.370738 60.999436 
L 271.04168 31.366533 
L 271.712622 31.00532 
L 272.383564 59.657504 
L 273.054506 46.465661 
L 273.725448 30.980487 
L 274.39639 31.964248 
L 275.067332 17.087504 
L 276.409215 46.17009 
L 277.080157 30.948666 
L 278.422041 32.569475 
L 279.092983 31.171721 
L 279.763925 31.034008 
L 280.434867 31.897745 
L 281.105808 31.381127 
L 281.77675 46.778276 
L 282.447692 59.493965 
L 283.789576 31.938841 
L 284.460518 31.373417 
L 285.13146 46.784465 
L 285.802402 31.897504 
L 286.473344 31.093166 
L 287.144285 58.543356 
L 287.815227 31.364792 
L 288.486169 31.092307 
L 289.157111 31.583815 
L 289.828053 31.393204 
L 290.498995 44.523889 
L 291.169937 31.688427 
L 291.840879 45.828059 
L 292.511821 31.813909 
L 293.182762 46.513973 
L 293.853704 17.083636 
L 294.524646 45.735406 
L 295.195588 50.481894 
L 295.86653 30.692578 
L 296.537472 31.753966 
L 297.208414 46.146706 
L 297.879356 45.357181 
L 298.550297 31.043775 
L 299.221239 44.34932 
L 299.892181 17.09398 
L 300.563123 32.220988 
L 301.234065 59.529085 
L 301.905007 50.262298 
L 302.575949 31.689257 
L 303.246891 31.268499 
L 303.917833 31.159618 
L 304.588774 48.943868 
L 305.259716 31.976516 
L 305.930658 31.248492 
L 306.6016 59.84537 
L 307.943484 31.582298 
L 308.614426 32.361666 
L 309.285368 17.598223 
L 309.956309 31.619137 
L 310.627251 32.04357 
L 311.969135 57.900152 
L 312.640077 55.639042 
L 313.311019 32.568207 
L 313.981961 31.742647 
L 314.652903 32.067144 
L 315.323845 32.566695 
L 315.994786 31.961305 
L 316.665728 32.434344 
L 317.33667 61.97798 
L 318.678554 32.02832 
L 319.349496 59.217083 
L 320.020438 32.388944 
L 320.69138 32.585719 
L 321.362322 45.113034 
L 322.033263 32.00719 
L 322.704205 32.407172 
L 323.375147 17.759467 
L 324.046089 45.029339 
L 324.717031 46.505115 
L 325.387973 45.827592 
L 326.058915 46.266042 
L 326.729857 51.506402 
L 327.400798 46.061313 
L 328.07174 32.499943 
L 328.742682 46.372442 
L 329.413624 17.855317 
L 330.084566 45.623112 
L 330.755508 18.070469 
L 331.42645 31.542063 
L 332.097392 17.851573 
L 332.768334 31.482853 
L 333.439275 32.552771 
L 334.110217 45.602225 
L 334.781159 32.023371 
L 335.452101 45.678915 
L 336.123043 31.89208 
L 336.793985 32.433292 
L 337.464927 45.365674 
L 338.135869 45.761162 
L 338.80681 31.662011 
L 339.477752 32.470065 
L 340.148694 45.834218 
L 340.819636 32.205142 
L 341.490578 61.623887 
L 342.16152 31.910351 
L 342.832462 32.559171 
L 343.503404 31.99684 
L 344.174346 45.700966 
L 344.845287 46.870873 
L 345.516229 32.325835 
L 346.187171 32.101341 
L 346.858113 46.602995 
L 347.529055 31.861636 
L 348.199997 32.458814 
L 348.870939 32.456569 
L 349.541881 46.805909 
L 350.212823 31.47592 
L 350.883764 45.270177 
L 351.554706 32.588252 
L 352.89659 32.549617 
L 353.567532 32.598809 
L 354.238474 32.060207 
L 354.909416 32.243138 
L 355.580358 31.796304 
L 356.251299 32.422141 
L 356.922241 32.605216 
L 357.593183 31.592583 
L 358.264125 32.393025 
L 358.935067 31.880965 
L 359.606009 31.800068 
L 360.276951 32.542366 
L 360.947893 60.899347 
L 361.618835 45.807879 
L 362.289776 46.17945 
L 362.960718 45.863757 
L 363.63166 31.847806 
L 364.302602 31.894381 
L 364.973544 46.463715 
L 365.644486 17.981296 
L 366.98637 46.58377 
L 367.657311 32.286045 
L 368.328253 32.646582 
L 368.999195 45.866353 
L 369.670137 32.528476 
L 370.341079 31.858277 
L 371.012021 31.688356 
L 371.682963 32.475982 
L 372.353905 51.577903 
L 373.024847 58.738825 
L 373.695788 31.828002 
L 374.36673 32.598472 
L 375.037672 31.770575 
L 375.708614 32.31277 
L 376.379556 32.009663 
L 377.050498 45.902003 
L 377.72144 49.03951 
L 378.392382 47.573676 
L 379.063324 32.730923 
L 379.734265 32.560561 
L 380.405207 45.054948 
L 381.076149 18.011564 
L 381.747091 17.975255 
L 382.418033 32.500782 
L 383.088975 32.886459 
L 383.759917 45.8832 
L 385.1018 18.038177 
L 385.772742 31.604446 
L 386.443684 54.569006 
L 387.114626 31.577603 
L 387.785568 59.544979 
L 389.127452 32.561698 
L 389.798394 59.529498 
L 390.469336 32.541012 
L 391.140277 45.763237 
L 391.811219 47.375714 
L 392.482161 32.485746 
L 393.824045 59.186806 
L 394.494987 46.041632 
L 395.165929 46.838577 
L 395.836871 32.604253 
L 395.836871 32.604253 
" style="fill:none;stroke:#1f77b4;stroke-linecap:square;stroke-width:1.5;"/>
   </g>
   <g id="patch_3">
    <path d="M 61.707813 224.64 
L 61.707813 7.2 
" style="fill:none;stroke:#000000;stroke-linecap:square;stroke-linejoin:miter;stroke-width:0.8;"/>
   </g>
   <g id="patch_4">
    <path d="M 396.507812 224.64 
L 396.507812 7.2 
" style="fill:none;stroke:#000000;stroke-linecap:square;stroke-linejoin:miter;stroke-width:0.8;"/>
   </g>
   <g id="patch_5">
    <path d="M 61.707813 224.64 
L 396.507812 224.64 
" style="fill:none;stroke:#000000;stroke-linecap:square;stroke-linejoin:miter;stroke-width:0.8;"/>
   </g>
   <g id="patch_6">
    <path d="M 61.707813 7.2 
L 396.507812 7.2 
" style="fill:none;stroke:#000000;stroke-linecap:square;stroke-linejoin:miter;stroke-width:0.8;"/>
   </g>
  </g>
 </g>
 <defs>
  <clipPath id="p54c5912233">
   <rect height="217.44" width="334.8" x="61.707813" y="7.2"/>
  </clipPath>
 </defs>
</svg>
