<?xml version="1.0" encoding="utf-8" standalone="no"?>
<!DOCTYPE svg PUBLIC "-//W3C//DTD SVG 1.1//EN"
  "http://www.w3.org/Graphics/SVG/1.1/DTD/svg11.dtd">
<!-- Created with matplotlib (https://matplotlib.org/) -->
<svg height="262.19625pt" version="1.1" viewBox="0 0 403.707812 262.19625" width="403.707812pt" xmlns="http://www.w3.org/2000/svg" xmlns:xlink="http://www.w3.org/1999/xlink">
 <defs>
  <style type="text/css">
*{stroke-linecap:butt;stroke-linejoin:round;}
  </style>
 </defs>
 <g id="figure_1">
  <g id="patch_1">
   <path d="M 0 262.19625 
L 403.707812 262.19625 
L 403.707812 0 
L 0 0 
z
" style="fill:none;"/>
  </g>
  <g id="axes_1">
   <g id="patch_2">
    <path d="M 48.982813 224.64 
L 383.782813 224.64 
L 383.782813 7.2 
L 48.982813 7.2 
z
" style="fill:#ffffff;"/>
   </g>
   <g id="matplotlib.axis_1">
    <g id="xtick_1">
     <g id="line2d_1">
      <defs>
       <path d="M 0 0 
L 0 3.5 
" id="m1319747dd7" style="stroke:#000000;stroke-width:0.8;"/>
      </defs>
      <g>
       <use style="stroke:#000000;stroke-width:0.8;" x="90.686264" xlink:href="#m1319747dd7" y="224.64"/>
      </g>
     </g>
     <g id="text_1">
      <!-- 250 -->
      <defs>
       <path d="M 19.1875 8.296875 
L 53.609375 8.296875 
L 53.609375 0 
L 7.328125 0 
L 7.328125 8.296875 
Q 12.9375 14.109375 22.625 23.890625 
Q 32.328125 33.6875 34.8125 36.53125 
Q 39.546875 41.84375 41.421875 45.53125 
Q 43.3125 49.21875 43.3125 52.78125 
Q 43.3125 58.59375 39.234375 62.25 
Q 35.15625 65.921875 28.609375 65.921875 
Q 23.96875 65.921875 18.8125 64.3125 
Q 13.671875 62.703125 7.8125 59.421875 
L 7.8125 69.390625 
Q 13.765625 71.78125 18.9375 73 
Q 24.125 74.21875 28.421875 74.21875 
Q 39.75 74.21875 46.484375 68.546875 
Q 53.21875 62.890625 53.21875 53.421875 
Q 53.21875 48.921875 51.53125 44.890625 
Q 49.859375 40.875 45.40625 35.40625 
Q 44.1875 33.984375 37.640625 27.21875 
Q 31.109375 20.453125 19.1875 8.296875 
z
" id="DejaVuSans-50"/>
       <path d="M 10.796875 72.90625 
L 49.515625 72.90625 
L 49.515625 64.59375 
L 19.828125 64.59375 
L 19.828125 46.734375 
Q 21.96875 47.46875 24.109375 47.828125 
Q 26.265625 48.1875 28.421875 48.1875 
Q 40.625 48.1875 47.75 41.5 
Q 54.890625 34.8125 54.890625 23.390625 
Q 54.890625 11.625 47.5625 5.09375 
Q 40.234375 -1.421875 26.90625 -1.421875 
Q 22.3125 -1.421875 17.546875 -0.640625 
Q 12.796875 0.140625 7.71875 1.703125 
L 7.71875 11.625 
Q 12.109375 9.234375 16.796875 8.0625 
Q 21.484375 6.890625 26.703125 6.890625 
Q 35.15625 6.890625 40.078125 11.328125 
Q 45.015625 15.765625 45.015625 23.390625 
Q 45.015625 31 40.078125 35.4375 
Q 35.15625 39.890625 26.703125 39.890625 
Q 22.75 39.890625 18.8125 39.015625 
Q 14.890625 38.140625 10.796875 36.28125 
z
" id="DejaVuSans-53"/>
       <path d="M 31.78125 66.40625 
Q 24.171875 66.40625 20.328125 58.90625 
Q 16.5 51.421875 16.5 36.375 
Q 16.5 21.390625 20.328125 13.890625 
Q 24.171875 6.390625 31.78125 6.390625 
Q 39.453125 6.390625 43.28125 13.890625 
Q 47.125 21.390625 47.125 36.375 
Q 47.125 51.421875 43.28125 58.90625 
Q 39.453125 66.40625 31.78125 66.40625 
z
M 31.78125 74.21875 
Q 44.046875 74.21875 50.515625 64.515625 
Q 56.984375 54.828125 56.984375 36.375 
Q 56.984375 17.96875 50.515625 8.265625 
Q 44.046875 -1.421875 31.78125 -1.421875 
Q 19.53125 -1.421875 13.0625 8.265625 
Q 6.59375 17.96875 6.59375 36.375 
Q 6.59375 54.828125 13.0625 64.515625 
Q 19.53125 74.21875 31.78125 74.21875 
z
" id="DejaVuSans-48"/>
      </defs>
      <g transform="translate(81.142514 239.238437)scale(0.1 -0.1)">
       <use xlink:href="#DejaVuSans-50"/>
       <use x="63.623047" xlink:href="#DejaVuSans-53"/>
       <use x="127.246094" xlink:href="#DejaVuSans-48"/>
      </g>
     </g>
    </g>
    <g id="xtick_2">
     <g id="line2d_2">
      <g>
       <use style="stroke:#000000;stroke-width:0.8;" x="132.5572" xlink:href="#m1319747dd7" y="224.64"/>
      </g>
     </g>
     <g id="text_2">
      <!-- 500 -->
      <g transform="translate(123.01345 239.238437)scale(0.1 -0.1)">
       <use xlink:href="#DejaVuSans-53"/>
       <use x="63.623047" xlink:href="#DejaVuSans-48"/>
       <use x="127.246094" xlink:href="#DejaVuSans-48"/>
      </g>
     </g>
    </g>
    <g id="xtick_3">
     <g id="line2d_3">
      <g>
       <use style="stroke:#000000;stroke-width:0.8;" x="174.428135" xlink:href="#m1319747dd7" y="224.64"/>
      </g>
     </g>
     <g id="text_3">
      <!-- 750 -->
      <defs>
       <path d="M 8.203125 72.90625 
L 55.078125 72.90625 
L 55.078125 68.703125 
L 28.609375 0 
L 18.3125 0 
L 43.21875 64.59375 
L 8.203125 64.59375 
z
" id="DejaVuSans-55"/>
      </defs>
      <g transform="translate(164.884385 239.238437)scale(0.1 -0.1)">
       <use xlink:href="#DejaVuSans-55"/>
       <use x="63.623047" xlink:href="#DejaVuSans-53"/>
       <use x="127.246094" xlink:href="#DejaVuSans-48"/>
      </g>
     </g>
    </g>
    <g id="xtick_4">
     <g id="line2d_4">
      <g>
       <use style="stroke:#000000;stroke-width:0.8;" x="216.299071" xlink:href="#m1319747dd7" y="224.64"/>
      </g>
     </g>
     <g id="text_4">
      <!-- 1000 -->
      <defs>
       <path d="M 12.40625 8.296875 
L 28.515625 8.296875 
L 28.515625 63.921875 
L 10.984375 60.40625 
L 10.984375 69.390625 
L 28.421875 72.90625 
L 38.28125 72.90625 
L 38.28125 8.296875 
L 54.390625 8.296875 
L 54.390625 0 
L 12.40625 0 
z
" id="DejaVuSans-49"/>
      </defs>
      <g transform="translate(203.574071 239.238437)scale(0.1 -0.1)">
       <use xlink:href="#DejaVuSans-49"/>
       <use x="63.623047" xlink:href="#DejaVuSans-48"/>
       <use x="127.246094" xlink:href="#DejaVuSans-48"/>
       <use x="190.869141" xlink:href="#DejaVuSans-48"/>
      </g>
     </g>
    </g>
    <g id="xtick_5">
     <g id="line2d_5">
      <g>
       <use style="stroke:#000000;stroke-width:0.8;" x="258.170006" xlink:href="#m1319747dd7" y="224.64"/>
      </g>
     </g>
     <g id="text_5">
      <!-- 1250 -->
      <g transform="translate(245.445006 239.238437)scale(0.1 -0.1)">
       <use xlink:href="#DejaVuSans-49"/>
       <use x="63.623047" xlink:href="#DejaVuSans-50"/>
       <use x="127.246094" xlink:href="#DejaVuSans-53"/>
       <use x="190.869141" xlink:href="#DejaVuSans-48"/>
      </g>
     </g>
    </g>
    <g id="xtick_6">
     <g id="line2d_6">
      <g>
       <use style="stroke:#000000;stroke-width:0.8;" x="300.040942" xlink:href="#m1319747dd7" y="224.64"/>
      </g>
     </g>
     <g id="text_6">
      <!-- 1500 -->
      <g transform="translate(287.315942 239.238437)scale(0.1 -0.1)">
       <use xlink:href="#DejaVuSans-49"/>
       <use x="63.623047" xlink:href="#DejaVuSans-53"/>
       <use x="127.246094" xlink:href="#DejaVuSans-48"/>
       <use x="190.869141" xlink:href="#DejaVuSans-48"/>
      </g>
     </g>
    </g>
    <g id="xtick_7">
     <g id="line2d_7">
      <g>
       <use style="stroke:#000000;stroke-width:0.8;" x="341.911877" xlink:href="#m1319747dd7" y="224.64"/>
      </g>
     </g>
     <g id="text_7">
      <!-- 1750 -->
      <g transform="translate(329.186877 239.238437)scale(0.1 -0.1)">
       <use xlink:href="#DejaVuSans-49"/>
       <use x="63.623047" xlink:href="#DejaVuSans-55"/>
       <use x="127.246094" xlink:href="#DejaVuSans-53"/>
       <use x="190.869141" xlink:href="#DejaVuSans-48"/>
      </g>
     </g>
    </g>
    <g id="xtick_8">
     <g id="line2d_8">
      <g>
       <use style="stroke:#000000;stroke-width:0.8;" x="383.782812" xlink:href="#m1319747dd7" y="224.64"/>
      </g>
     </g>
     <g id="text_8">
      <!-- 2000 -->
      <g transform="translate(371.057812 239.238437)scale(0.1 -0.1)">
       <use xlink:href="#DejaVuSans-50"/>
       <use x="63.623047" xlink:href="#DejaVuSans-48"/>
       <use x="127.246094" xlink:href="#DejaVuSans-48"/>
       <use x="190.869141" xlink:href="#DejaVuSans-48"/>
      </g>
     </g>
    </g>
    <g id="text_9">
     <!-- Episode -->
     <defs>
      <path d="M 9.8125 72.90625 
L 55.90625 72.90625 
L 55.90625 64.59375 
L 19.671875 64.59375 
L 19.671875 43.015625 
L 54.390625 43.015625 
L 54.390625 34.71875 
L 19.671875 34.71875 
L 19.671875 8.296875 
L 56.78125 8.296875 
L 56.78125 0 
L 9.8125 0 
z
" id="DejaVuSans-69"/>
      <path d="M 18.109375 8.203125 
L 18.109375 -20.796875 
L 9.078125 -20.796875 
L 9.078125 54.6875 
L 18.109375 54.6875 
L 18.109375 46.390625 
Q 20.953125 51.265625 25.265625 53.625 
Q 29.59375 56 35.59375 56 
Q 45.5625 56 51.78125 48.09375 
Q 58.015625 40.1875 58.015625 27.296875 
Q 58.015625 14.40625 51.78125 6.484375 
Q 45.5625 -1.421875 35.59375 -1.421875 
Q 29.59375 -1.421875 25.265625 0.953125 
Q 20.953125 3.328125 18.109375 8.203125 
z
M 48.6875 27.296875 
Q 48.6875 37.203125 44.609375 42.84375 
Q 40.53125 48.484375 33.40625 48.484375 
Q 26.265625 48.484375 22.1875 42.84375 
Q 18.109375 37.203125 18.109375 27.296875 
Q 18.109375 17.390625 22.1875 11.75 
Q 26.265625 6.109375 33.40625 6.109375 
Q 40.53125 6.109375 44.609375 11.75 
Q 48.6875 17.390625 48.6875 27.296875 
z
" id="DejaVuSans-112"/>
      <path d="M 9.421875 54.6875 
L 18.40625 54.6875 
L 18.40625 0 
L 9.421875 0 
z
M 9.421875 75.984375 
L 18.40625 75.984375 
L 18.40625 64.59375 
L 9.421875 64.59375 
z
" id="DejaVuSans-105"/>
      <path d="M 44.28125 53.078125 
L 44.28125 44.578125 
Q 40.484375 46.53125 36.375 47.5 
Q 32.28125 48.484375 27.875 48.484375 
Q 21.1875 48.484375 17.84375 46.4375 
Q 14.5 44.390625 14.5 40.28125 
Q 14.5 37.15625 16.890625 35.375 
Q 19.28125 33.59375 26.515625 31.984375 
L 29.59375 31.296875 
Q 39.15625 29.25 43.1875 25.515625 
Q 47.21875 21.78125 47.21875 15.09375 
Q 47.21875 7.46875 41.1875 3.015625 
Q 35.15625 -1.421875 24.609375 -1.421875 
Q 20.21875 -1.421875 15.453125 -0.5625 
Q 10.6875 0.296875 5.421875 2 
L 5.421875 11.28125 
Q 10.40625 8.6875 15.234375 7.390625 
Q 20.0625 6.109375 24.8125 6.109375 
Q 31.15625 6.109375 34.5625 8.28125 
Q 37.984375 10.453125 37.984375 14.40625 
Q 37.984375 18.0625 35.515625 20.015625 
Q 33.0625 21.96875 24.703125 23.78125 
L 21.578125 24.515625 
Q 13.234375 26.265625 9.515625 29.90625 
Q 5.8125 33.546875 5.8125 39.890625 
Q 5.8125 47.609375 11.28125 51.796875 
Q 16.75 56 26.8125 56 
Q 31.78125 56 36.171875 55.265625 
Q 40.578125 54.546875 44.28125 53.078125 
z
" id="DejaVuSans-115"/>
      <path d="M 30.609375 48.390625 
Q 23.390625 48.390625 19.1875 42.75 
Q 14.984375 37.109375 14.984375 27.296875 
Q 14.984375 17.484375 19.15625 11.84375 
Q 23.34375 6.203125 30.609375 6.203125 
Q 37.796875 6.203125 41.984375 11.859375 
Q 46.1875 17.53125 46.1875 27.296875 
Q 46.1875 37.015625 41.984375 42.703125 
Q 37.796875 48.390625 30.609375 48.390625 
z
M 30.609375 56 
Q 42.328125 56 49.015625 48.375 
Q 55.71875 40.765625 55.71875 27.296875 
Q 55.71875 13.875 49.015625 6.21875 
Q 42.328125 -1.421875 30.609375 -1.421875 
Q 18.84375 -1.421875 12.171875 6.21875 
Q 5.515625 13.875 5.515625 27.296875 
Q 5.515625 40.765625 12.171875 48.375 
Q 18.84375 56 30.609375 56 
z
" id="DejaVuSans-111"/>
      <path d="M 45.40625 46.390625 
L 45.40625 75.984375 
L 54.390625 75.984375 
L 54.390625 0 
L 45.40625 0 
L 45.40625 8.203125 
Q 42.578125 3.328125 38.25 0.953125 
Q 33.9375 -1.421875 27.875 -1.421875 
Q 17.96875 -1.421875 11.734375 6.484375 
Q 5.515625 14.40625 5.515625 27.296875 
Q 5.515625 40.1875 11.734375 48.09375 
Q 17.96875 56 27.875 56 
Q 33.9375 56 38.25 53.625 
Q 42.578125 51.265625 45.40625 46.390625 
z
M 14.796875 27.296875 
Q 14.796875 17.390625 18.875 11.75 
Q 22.953125 6.109375 30.078125 6.109375 
Q 37.203125 6.109375 41.296875 11.75 
Q 45.40625 17.390625 45.40625 27.296875 
Q 45.40625 37.203125 41.296875 42.84375 
Q 37.203125 48.484375 30.078125 48.484375 
Q 22.953125 48.484375 18.875 42.84375 
Q 14.796875 37.203125 14.796875 27.296875 
z
" id="DejaVuSans-100"/>
      <path d="M 56.203125 29.59375 
L 56.203125 25.203125 
L 14.890625 25.203125 
Q 15.484375 15.921875 20.484375 11.0625 
Q 25.484375 6.203125 34.421875 6.203125 
Q 39.59375 6.203125 44.453125 7.46875 
Q 49.3125 8.734375 54.109375 11.28125 
L 54.109375 2.78125 
Q 49.265625 0.734375 44.1875 -0.34375 
Q 39.109375 -1.421875 33.890625 -1.421875 
Q 20.796875 -1.421875 13.15625 6.1875 
Q 5.515625 13.8125 5.515625 26.8125 
Q 5.515625 40.234375 12.765625 48.109375 
Q 20.015625 56 32.328125 56 
Q 43.359375 56 49.78125 48.890625 
Q 56.203125 41.796875 56.203125 29.59375 
z
M 47.21875 32.234375 
Q 47.125 39.59375 43.09375 43.984375 
Q 39.0625 48.390625 32.421875 48.390625 
Q 24.90625 48.390625 20.390625 44.140625 
Q 15.875 39.890625 15.1875 32.171875 
z
" id="DejaVuSans-101"/>
     </defs>
     <g transform="translate(196.745313 252.916562)scale(0.1 -0.1)">
      <use xlink:href="#DejaVuSans-69"/>
      <use x="63.183594" xlink:href="#DejaVuSans-112"/>
      <use x="126.660156" xlink:href="#DejaVuSans-105"/>
      <use x="154.443359" xlink:href="#DejaVuSans-115"/>
      <use x="206.542969" xlink:href="#DejaVuSans-111"/>
      <use x="267.724609" xlink:href="#DejaVuSans-100"/>
      <use x="331.201172" xlink:href="#DejaVuSans-101"/>
     </g>
    </g>
   </g>
   <g id="matplotlib.axis_2">
    <g id="ytick_1">
     <g id="line2d_9">
      <defs>
       <path d="M 0 0 
L -3.5 0 
" id="m4dffe54e39" style="stroke:#000000;stroke-width:0.8;"/>
      </defs>
      <g>
       <use style="stroke:#000000;stroke-width:0.8;" x="48.982813" xlink:href="#m4dffe54e39" y="190.861858"/>
      </g>
     </g>
     <g id="text_10">
      <!-- −60 -->
      <defs>
       <path d="M 10.59375 35.5 
L 73.1875 35.5 
L 73.1875 27.203125 
L 10.59375 27.203125 
z
" id="DejaVuSans-8722"/>
       <path d="M 33.015625 40.375 
Q 26.375 40.375 22.484375 35.828125 
Q 18.609375 31.296875 18.609375 23.390625 
Q 18.609375 15.53125 22.484375 10.953125 
Q 26.375 6.390625 33.015625 6.390625 
Q 39.65625 6.390625 43.53125 10.953125 
Q 47.40625 15.53125 47.40625 23.390625 
Q 47.40625 31.296875 43.53125 35.828125 
Q 39.65625 40.375 33.015625 40.375 
z
M 52.59375 71.296875 
L 52.59375 62.3125 
Q 48.875 64.0625 45.09375 64.984375 
Q 41.3125 65.921875 37.59375 65.921875 
Q 27.828125 65.921875 22.671875 59.328125 
Q 17.53125 52.734375 16.796875 39.40625 
Q 19.671875 43.65625 24.015625 45.921875 
Q 28.375 48.1875 33.59375 48.1875 
Q 44.578125 48.1875 50.953125 41.515625 
Q 57.328125 34.859375 57.328125 23.390625 
Q 57.328125 12.15625 50.6875 5.359375 
Q 44.046875 -1.421875 33.015625 -1.421875 
Q 20.359375 -1.421875 13.671875 8.265625 
Q 6.984375 17.96875 6.984375 36.375 
Q 6.984375 53.65625 15.1875 63.9375 
Q 23.390625 74.21875 37.203125 74.21875 
Q 40.921875 74.21875 44.703125 73.484375 
Q 48.484375 72.75 52.59375 71.296875 
z
" id="DejaVuSans-54"/>
      </defs>
      <g transform="translate(20.878125 194.661077)scale(0.1 -0.1)">
       <use xlink:href="#DejaVuSans-8722"/>
       <use x="83.789062" xlink:href="#DejaVuSans-54"/>
       <use x="147.412109" xlink:href="#DejaVuSans-48"/>
      </g>
     </g>
    </g>
    <g id="ytick_2">
     <g id="line2d_10">
      <g>
       <use style="stroke:#000000;stroke-width:0.8;" x="48.982813" xlink:href="#m4dffe54e39" y="147.417303"/>
      </g>
     </g>
     <g id="text_11">
      <!-- −40 -->
      <defs>
       <path d="M 37.796875 64.3125 
L 12.890625 25.390625 
L 37.796875 25.390625 
z
M 35.203125 72.90625 
L 47.609375 72.90625 
L 47.609375 25.390625 
L 58.015625 25.390625 
L 58.015625 17.1875 
L 47.609375 17.1875 
L 47.609375 0 
L 37.796875 0 
L 37.796875 17.1875 
L 4.890625 17.1875 
L 4.890625 26.703125 
z
" id="DejaVuSans-52"/>
      </defs>
      <g transform="translate(20.878125 151.216521)scale(0.1 -0.1)">
       <use xlink:href="#DejaVuSans-8722"/>
       <use x="83.789062" xlink:href="#DejaVuSans-52"/>
       <use x="147.412109" xlink:href="#DejaVuSans-48"/>
      </g>
     </g>
    </g>
    <g id="ytick_3">
     <g id="line2d_11">
      <g>
       <use style="stroke:#000000;stroke-width:0.8;" x="48.982813" xlink:href="#m4dffe54e39" y="103.972747"/>
      </g>
     </g>
     <g id="text_12">
      <!-- −20 -->
      <g transform="translate(20.878125 107.771966)scale(0.1 -0.1)">
       <use xlink:href="#DejaVuSans-8722"/>
       <use x="83.789062" xlink:href="#DejaVuSans-50"/>
       <use x="147.412109" xlink:href="#DejaVuSans-48"/>
      </g>
     </g>
    </g>
    <g id="ytick_4">
     <g id="line2d_12">
      <g>
       <use style="stroke:#000000;stroke-width:0.8;" x="48.982813" xlink:href="#m4dffe54e39" y="60.528192"/>
      </g>
     </g>
     <g id="text_13">
      <!-- 0 -->
      <g transform="translate(35.620312 64.327411)scale(0.1 -0.1)">
       <use xlink:href="#DejaVuSans-48"/>
      </g>
     </g>
    </g>
    <g id="ytick_5">
     <g id="line2d_13">
      <g>
       <use style="stroke:#000000;stroke-width:0.8;" x="48.982813" xlink:href="#m4dffe54e39" y="17.083636"/>
      </g>
     </g>
     <g id="text_14">
      <!-- 20 -->
      <g transform="translate(29.257812 20.882855)scale(0.1 -0.1)">
       <use xlink:href="#DejaVuSans-50"/>
       <use x="63.623047" xlink:href="#DejaVuSans-48"/>
      </g>
     </g>
    </g>
    <g id="text_15">
     <!-- Reward -->
     <defs>
      <path d="M 44.390625 34.1875 
Q 47.5625 33.109375 50.5625 29.59375 
Q 53.5625 26.078125 56.59375 19.921875 
L 66.609375 0 
L 56 0 
L 46.6875 18.703125 
Q 43.0625 26.03125 39.671875 28.421875 
Q 36.28125 30.8125 30.421875 30.8125 
L 19.671875 30.8125 
L 19.671875 0 
L 9.8125 0 
L 9.8125 72.90625 
L 32.078125 72.90625 
Q 44.578125 72.90625 50.734375 67.671875 
Q 56.890625 62.453125 56.890625 51.90625 
Q 56.890625 45.015625 53.6875 40.46875 
Q 50.484375 35.9375 44.390625 34.1875 
z
M 19.671875 64.796875 
L 19.671875 38.921875 
L 32.078125 38.921875 
Q 39.203125 38.921875 42.84375 42.21875 
Q 46.484375 45.515625 46.484375 51.90625 
Q 46.484375 58.296875 42.84375 61.546875 
Q 39.203125 64.796875 32.078125 64.796875 
z
" id="DejaVuSans-82"/>
      <path d="M 4.203125 54.6875 
L 13.1875 54.6875 
L 24.421875 12.015625 
L 35.59375 54.6875 
L 46.1875 54.6875 
L 57.421875 12.015625 
L 68.609375 54.6875 
L 77.59375 54.6875 
L 63.28125 0 
L 52.6875 0 
L 40.921875 44.828125 
L 29.109375 0 
L 18.5 0 
z
" id="DejaVuSans-119"/>
      <path d="M 34.28125 27.484375 
Q 23.390625 27.484375 19.1875 25 
Q 14.984375 22.515625 14.984375 16.5 
Q 14.984375 11.71875 18.140625 8.90625 
Q 21.296875 6.109375 26.703125 6.109375 
Q 34.1875 6.109375 38.703125 11.40625 
Q 43.21875 16.703125 43.21875 25.484375 
L 43.21875 27.484375 
z
M 52.203125 31.203125 
L 52.203125 0 
L 43.21875 0 
L 43.21875 8.296875 
Q 40.140625 3.328125 35.546875 0.953125 
Q 30.953125 -1.421875 24.3125 -1.421875 
Q 15.921875 -1.421875 10.953125 3.296875 
Q 6 8.015625 6 15.921875 
Q 6 25.140625 12.171875 29.828125 
Q 18.359375 34.515625 30.609375 34.515625 
L 43.21875 34.515625 
L 43.21875 35.40625 
Q 43.21875 41.609375 39.140625 45 
Q 35.0625 48.390625 27.6875 48.390625 
Q 23 48.390625 18.546875 47.265625 
Q 14.109375 46.140625 10.015625 43.890625 
L 10.015625 52.203125 
Q 14.9375 54.109375 19.578125 55.046875 
Q 24.21875 56 28.609375 56 
Q 40.484375 56 46.34375 49.84375 
Q 52.203125 43.703125 52.203125 31.203125 
z
" id="DejaVuSans-97"/>
      <path d="M 41.109375 46.296875 
Q 39.59375 47.171875 37.8125 47.578125 
Q 36.03125 48 33.890625 48 
Q 26.265625 48 22.1875 43.046875 
Q 18.109375 38.09375 18.109375 28.8125 
L 18.109375 0 
L 9.078125 0 
L 9.078125 54.6875 
L 18.109375 54.6875 
L 18.109375 46.1875 
Q 20.953125 51.171875 25.484375 53.578125 
Q 30.03125 56 36.53125 56 
Q 37.453125 56 38.578125 55.875 
Q 39.703125 55.765625 41.0625 55.515625 
z
" id="DejaVuSans-114"/>
     </defs>
     <g transform="translate(14.798437 134.849687)rotate(-90)scale(0.1 -0.1)">
      <use xlink:href="#DejaVuSans-82"/>
      <use x="69.419922" xlink:href="#DejaVuSans-101"/>
      <use x="130.943359" xlink:href="#DejaVuSans-119"/>
      <use x="212.730469" xlink:href="#DejaVuSans-97"/>
      <use x="274.009766" xlink:href="#DejaVuSans-114"/>
      <use x="315.107422" xlink:href="#DejaVuSans-100"/>
     </g>
    </g>
   </g>
   <g id="line2d_14">
    <path clip-path="url(#p9497e10930)" d="M 48.815329 149.58953 
L 48.982813 127.867253 
L 49.150296 149.58953 
L 49.652747 149.58953 
L 49.820231 143.072847 
L 50.155199 153.933986 
L 50.322682 153.933986 
L 50.490166 162.622897 
L 50.65765 153.933986 
L 50.825134 153.933986 
L 50.992617 162.622897 
L 51.160101 162.622897 
L 51.327585 171.311808 
L 51.662552 158.278442 
L 51.830036 153.933986 
L 52.165004 166.967353 
L 52.332487 171.311808 
L 52.667455 171.311808 
L 52.834939 166.967353 
L 53.002422 166.967353 
L 53.169906 171.311808 
L 53.33739 180.000719 
L 53.504874 166.967353 
L 53.672357 171.311808 
L 53.839841 184.345175 
L 54.007325 166.967353 
L 54.174808 175.656264 
L 54.342292 171.311808 
L 54.509776 175.656264 
L 54.67726 188.68963 
L 54.844743 175.656264 
L 55.179711 175.656264 
L 55.347195 184.345175 
L 55.682162 184.345175 
L 55.849646 171.311808 
L 56.01713 184.345175 
L 56.352097 162.622897 
L 56.519581 201.722997 
L 56.687065 197.378541 
L 56.854548 166.967353 
L 57.022032 166.967353 
L 57.189516 180.000719 
L 57.357 180.000719 
L 57.691967 201.722997 
L 57.859451 166.967353 
L 58.026935 201.722997 
L 58.361902 166.967353 
L 58.529386 184.345175 
L 58.69687 184.345175 
L 58.864353 166.967353 
L 59.366804 166.967353 
L 59.534288 175.656264 
L 59.701772 171.311808 
L 59.869256 175.656264 
L 60.036739 184.345175 
L 60.204223 184.345175 
L 60.371707 188.68963 
L 60.539191 184.345175 
L 60.706674 188.68963 
L 60.874158 171.311808 
L 61.041642 166.967353 
L 61.209126 175.656264 
L 61.544093 175.656264 
L 61.711577 171.311808 
L 61.879061 171.311808 
L 62.046544 175.656264 
L 62.214028 188.68963 
L 62.381512 184.345175 
L 62.548996 171.311808 
L 62.716479 175.656264 
L 62.883963 158.278442 
L 63.051447 184.345175 
L 63.218931 180.000719 
L 63.386414 184.345175 
L 63.553898 171.311808 
L 63.721382 166.967353 
L 63.888866 158.278442 
L 64.056349 180.000719 
L 64.223833 171.311808 
L 64.391317 184.345175 
L 64.726284 171.311808 
L 64.893768 184.345175 
L 65.061252 175.656264 
L 65.228735 184.345175 
L 65.396219 184.345175 
L 65.731187 171.311808 
L 65.89867 180.000719 
L 66.066154 175.656264 
L 66.233638 175.656264 
L 66.401122 166.967353 
L 66.568605 184.345175 
L 66.736089 166.967353 
L 66.903573 171.311808 
L 67.071057 171.311808 
L 67.406024 193.034086 
L 67.573508 180.000719 
L 67.740992 158.278442 
L 67.908475 166.967353 
L 68.075959 162.622897 
L 68.410927 184.345175 
L 68.57841 171.311808 
L 68.745894 184.345175 
L 68.913378 188.68963 
L 69.080862 158.278442 
L 69.248345 175.656264 
L 69.415829 171.311808 
L 69.583313 188.68963 
L 69.91828 162.622897 
L 70.253248 175.656264 
L 70.420731 158.278442 
L 70.588215 171.311808 
L 70.755699 166.967353 
L 70.923183 180.000719 
L 71.090666 184.345175 
L 71.25815 162.622897 
L 71.425634 175.656264 
L 71.593118 180.000719 
L 71.760601 166.967353 
L 71.928085 166.967353 
L 72.095569 149.58953 
L 72.263053 166.967353 
L 72.430536 171.311808 
L 72.59802 184.345175 
L 72.765504 162.622897 
L 72.932988 171.311808 
L 73.100471 162.622897 
L 73.267955 162.622897 
L 73.435439 175.656264 
L 73.602923 158.278442 
L 73.93789 158.278442 
L 74.105374 162.622897 
L 74.272858 171.311808 
L 74.440341 153.933986 
L 74.607825 158.278442 
L 74.775309 184.345175 
L 74.942792 184.345175 
L 75.110276 162.622897 
L 75.27776 166.967353 
L 75.445244 158.278442 
L 75.612727 175.656264 
L 75.780211 158.278442 
L 75.947695 175.656264 
L 76.115179 158.278442 
L 76.450146 149.58953 
L 76.61763 153.933986 
L 76.785114 149.58953 
L 76.952597 166.967353 
L 77.120081 158.278442 
L 77.287565 166.967353 
L 77.455049 153.933986 
L 77.622532 153.933986 
L 77.790016 158.278442 
L 77.9575 166.967353 
L 78.124984 149.58953 
L 78.459951 180.000719 
L 78.627435 153.933986 
L 78.794919 158.278442 
L 78.962402 158.278442 
L 79.129886 153.933986 
L 79.29737 162.622897 
L 79.464854 162.622897 
L 79.632337 153.933986 
L 79.799821 166.967353 
L 79.967305 153.933986 
L 80.302272 175.656264 
L 80.469756 110.489431 
L 80.804723 171.311808 
L 80.972207 149.58953 
L 81.139691 73.561558 
L 81.307175 166.967353 
L 81.474658 158.278442 
L 81.642142 158.278442 
L 81.809626 149.58953 
L 81.97711 166.967353 
L 82.144593 153.933986 
L 82.312077 175.656264 
L 82.479561 162.622897 
L 82.647045 180.000719 
L 82.814528 184.345175 
L 83.149496 153.933986 
L 83.31698 162.622897 
L 83.484463 180.000719 
L 83.651947 166.967353 
L 83.819431 56.183736 
L 83.986915 162.622897 
L 84.154398 158.278442 
L 84.321882 158.278442 
L 84.489366 149.58953 
L 84.65685 153.933986 
L 84.824333 162.622897 
L 84.991817 149.58953 
L 85.326784 188.68963 
L 85.661752 162.622897 
L 85.829236 166.967353 
L 85.996719 158.278442 
L 86.164203 171.311808 
L 86.331687 166.967353 
L 86.499171 184.345175 
L 86.834138 153.933986 
L 87.001622 158.278442 
L 87.169106 40.978142 
L 87.336589 171.311808 
L 87.504073 149.58953 
L 87.671557 88.767153 
L 87.839041 171.311808 
L 88.006524 188.68963 
L 88.508976 162.622897 
L 88.676459 180.000719 
L 88.843943 171.311808 
L 89.011427 149.58953 
L 89.178911 171.311808 
L 89.346394 166.967353 
L 89.681362 166.967353 
L 89.848846 175.656264 
L 90.016329 149.58953 
L 90.351297 180.000719 
L 90.51878 184.345175 
L 90.686264 162.622897 
L 90.853748 180.000719 
L 91.021232 184.345175 
L 91.188715 166.967353 
L 91.356199 166.967353 
L 91.523683 171.311808 
L 91.691167 162.622897 
L 91.85865 180.000719 
L 92.193618 166.967353 
L 92.361102 166.967353 
L 92.528585 149.58953 
L 92.696069 188.68963 
L 92.863553 162.622897 
L 93.031037 67.044875 
L 93.19852 166.967353 
L 93.366004 171.311808 
L 93.533488 180.000719 
L 93.700972 180.000719 
L 93.868455 175.656264 
L 94.035939 184.345175 
L 94.203423 171.311808 
L 94.370907 184.345175 
L 94.53839 171.311808 
L 94.705874 193.034086 
L 94.873358 149.58953 
L 95.208325 184.345175 
L 95.375809 166.967353 
L 95.543293 180.000719 
L 95.710776 166.967353 
L 95.87826 175.656264 
L 96.045744 171.311808 
L 96.213228 153.933986 
L 96.380711 158.278442 
L 96.548195 166.967353 
L 96.715679 162.622897 
L 96.883163 171.311808 
L 97.050646 166.967353 
L 97.21813 188.68963 
L 97.385614 162.622897 
L 97.553098 166.967353 
L 97.888065 184.345175 
L 98.055549 158.278442 
L 98.223033 171.311808 
L 98.390516 149.58953 
L 98.558 158.278442 
L 98.725484 153.933986 
L 98.892968 166.967353 
L 99.227935 158.278442 
L 99.395419 166.967353 
L 99.562903 158.278442 
L 99.730386 158.278442 
L 99.89787 166.967353 
L 100.065354 166.967353 
L 100.232838 158.278442 
L 100.400321 158.278442 
L 100.567805 166.967353 
L 100.902772 153.933986 
L 101.070256 166.967353 
L 101.23774 158.278442 
L 101.405224 171.311808 
L 101.572707 166.967353 
L 101.740191 171.311808 
L 101.907675 162.622897 
L 102.075159 166.967353 
L 102.242642 153.933986 
L 102.410126 149.58953 
L 102.745094 175.656264 
L 102.912577 175.656264 
L 103.247545 166.967353 
L 103.415029 171.311808 
L 103.582512 162.622897 
L 103.749996 166.967353 
L 103.91748 153.933986 
L 104.084964 166.967353 
L 104.252447 153.933986 
L 104.419931 162.622897 
L 104.587415 184.345175 
L 104.922382 166.967353 
L 105.089866 171.311808 
L 105.25735 166.967353 
L 105.424834 153.933986 
L 105.592317 153.933986 
L 105.759801 171.311808 
L 105.927285 153.933986 
L 106.094768 153.933986 
L 106.262252 149.58953 
L 106.429736 175.656264 
L 106.59722 153.933986 
L 106.764703 162.622897 
L 106.932187 188.68963 
L 107.099671 149.58953 
L 107.267155 149.58953 
L 107.434638 153.933986 
L 107.602122 149.58953 
L 107.769606 149.58953 
L 107.93709 153.933986 
L 108.104573 149.58953 
L 108.272057 153.933986 
L 108.439541 180.000719 
L 108.607025 149.58953 
L 108.774508 162.622897 
L 108.941992 162.622897 
L 109.27696 171.311808 
L 109.444443 158.278442 
L 109.611927 171.311808 
L 109.779411 149.58953 
L 109.946895 158.278442 
L 110.114378 153.933986 
L 110.281862 171.311808 
L 110.449346 171.311808 
L 110.784313 153.933986 
L 110.951797 166.967353 
L 111.119281 153.933986 
L 111.286764 158.278442 
L 111.454248 166.967353 
L 111.621732 162.622897 
L 111.789216 149.58953 
L 111.956699 153.933986 
L 112.124183 153.933986 
L 112.291667 166.967353 
L 112.459151 171.311808 
L 112.626634 106.144975 
L 112.794118 84.422697 
L 112.961602 149.58953 
L 113.129086 171.311808 
L 113.296569 158.278442 
L 113.464053 175.656264 
L 113.631537 153.933986 
L 113.799021 162.622897 
L 113.966504 149.58953 
L 114.133988 171.311808 
L 114.301472 175.656264 
L 114.468956 149.58953 
L 114.636439 149.58953 
L 114.803923 158.278442 
L 114.971407 145.245075 
L 115.138891 153.933986 
L 115.306374 97.456064 
L 115.473858 171.311808 
L 115.641342 149.58953 
L 115.808826 149.58953 
L 115.976309 175.656264 
L 116.143793 180.000719 
L 116.311277 162.622897 
L 116.47876 158.278442 
L 116.646244 158.278442 
L 116.813728 153.933986 
L 116.981212 158.278442 
L 117.148695 158.278442 
L 117.316179 153.933986 
L 117.483663 171.311808 
L 117.651147 158.278442 
L 117.81863 153.933986 
L 117.986114 166.967353 
L 118.153598 153.933986 
L 118.321082 153.933986 
L 118.488565 149.58953 
L 118.656049 149.58953 
L 118.823533 153.933986 
L 118.991017 175.656264 
L 119.1585 153.933986 
L 119.325984 103.972747 
L 119.493468 166.967353 
L 119.660952 153.933986 
L 119.828435 171.311808 
L 119.995919 73.561558 
L 120.163403 171.311808 
L 120.330887 166.967353 
L 120.49837 175.656264 
L 120.665854 158.278442 
L 120.833338 158.278442 
L 121.000822 180.000719 
L 121.168305 166.967353 
L 121.335789 69.217103 
L 121.503273 153.933986 
L 121.83824 180.000719 
L 122.173208 149.58953 
L 122.508175 158.278442 
L 122.675659 158.278442 
L 122.843143 99.628292 
L 123.010626 149.58953 
L 123.17811 158.278442 
L 123.345594 175.656264 
L 123.513078 162.622897 
L 123.680561 67.044875 
L 123.848045 188.68963 
L 124.015529 162.622897 
L 124.183013 162.622897 
L 124.350496 188.68963 
L 124.51798 162.622897 
L 124.685464 171.311808 
L 125.020431 162.622897 
L 125.187915 149.58953 
L 125.355399 171.311808 
L 125.522883 158.278442 
L 125.690366 158.278442 
L 125.85785 149.58953 
L 126.025334 95.283836 
L 126.192818 162.622897 
L 126.360301 175.656264 
L 126.695269 114.833886 
L 126.862752 158.278442 
L 127.030236 153.933986 
L 127.19772 162.622897 
L 127.365204 188.68963 
L 127.532687 162.622897 
L 127.867655 149.58953 
L 128.202622 180.000719 
L 128.53759 149.58953 
L 128.705074 166.967353 
L 128.872557 153.933986 
L 129.040041 184.345175 
L 129.207525 171.311808 
L 129.542492 134.383936 
L 129.87746 175.656264 
L 130.212427 149.58953 
L 130.379911 80.078242 
L 130.547395 153.933986 
L 130.714879 175.656264 
L 130.882362 162.622897 
L 131.049846 175.656264 
L 131.21733 175.656264 
L 131.719781 153.933986 
L 131.887265 47.494825 
L 132.054748 158.278442 
L 132.389716 149.58953 
L 132.5572 149.58953 
L 132.724683 153.933986 
L 132.892167 130.039481 
L 133.227135 162.622897 
L 133.394618 149.58953 
L 133.562102 149.58953 
L 133.729586 153.933986 
L 133.89707 162.622897 
L 134.064553 158.278442 
L 134.232037 180.000719 
L 134.399521 73.561558 
L 134.567005 153.933986 
L 134.734488 158.278442 
L 134.901972 158.278442 
L 135.23694 166.967353 
L 135.404423 162.622897 
L 135.571907 180.000719 
L 135.739391 153.933986 
L 135.906875 149.58953 
L 136.074358 166.967353 
L 136.241842 166.967353 
L 136.409326 153.933986 
L 136.576809 166.967353 
L 136.744293 162.622897 
L 136.911777 149.58953 
L 137.079261 158.278442 
L 137.246744 149.58953 
L 137.414228 171.311808 
L 137.581712 149.58953 
L 137.749196 166.967353 
L 137.916679 149.58953 
L 138.084163 153.933986 
L 138.251647 171.311808 
L 138.419131 149.58953 
L 138.586614 158.278442 
L 138.754098 158.278442 
L 138.921582 149.58953 
L 139.089066 149.58953 
L 139.256549 166.967353 
L 139.424033 158.278442 
L 139.591517 180.000719 
L 139.759001 149.58953 
L 139.926484 162.622897 
L 140.093968 158.278442 
L 140.261452 158.278442 
L 140.428936 153.933986 
L 140.596419 171.311808 
L 140.763903 158.278442 
L 140.931387 166.967353 
L 141.098871 158.278442 
L 141.266354 180.000719 
L 141.433838 166.967353 
L 141.601322 162.622897 
L 141.768805 149.58953 
L 142.103773 149.58953 
L 142.271257 175.656264 
L 142.43874 95.283836 
L 142.606224 149.58953 
L 142.773708 153.933986 
L 143.108675 153.933986 
L 143.276159 27.944775 
L 143.443643 38.805914 
L 143.611127 30.117003 
L 143.77861 149.58953 
L 143.946094 175.656264 
L 144.113578 158.278442 
L 144.281062 153.933986 
L 144.448545 153.933986 
L 144.616029 158.278442 
L 144.783513 134.383936 
L 145.11848 166.967353 
L 145.285964 158.278442 
L 145.453448 114.833886 
L 145.620932 123.522797 
L 145.788415 166.967353 
L 145.955899 149.58953 
L 146.123383 166.967353 
L 146.290867 162.622897 
L 146.45835 171.311808 
L 146.625834 149.58953 
L 146.793318 158.278442 
L 146.960801 153.933986 
L 147.295769 175.656264 
L 147.463253 166.967353 
L 147.79822 97.456064 
L 147.965704 166.967353 
L 148.133188 166.967353 
L 148.300671 158.278442 
L 148.468155 158.278442 
L 148.635639 153.933986 
L 148.803123 180.000719 
L 148.970606 171.311808 
L 149.13809 153.933986 
L 149.305574 153.933986 
L 149.473058 175.656264 
L 149.640541 158.278442 
L 149.808025 175.656264 
L 149.975509 158.278442 
L 150.142993 153.933986 
L 150.310476 166.967353 
L 150.47796 143.072847 
L 150.645444 158.278442 
L 150.812928 158.278442 
L 150.980411 171.311808 
L 151.315379 149.58953 
L 151.482863 149.58953 
L 151.650346 162.622897 
L 151.81783 162.622897 
L 151.985314 149.58953 
L 152.320281 166.967353 
L 152.487765 149.58953 
L 152.655249 166.967353 
L 152.822732 171.311808 
L 152.990216 149.58953 
L 153.1577 180.000719 
L 153.325184 149.58953 
L 153.492667 171.311808 
L 153.660151 158.278442 
L 153.827635 175.656264 
L 153.995119 149.58953 
L 154.162602 197.378541 
L 154.330086 166.967353 
L 154.665054 153.933986 
L 154.832537 149.58953 
L 155.000021 149.58953 
L 155.167505 166.967353 
L 155.334989 149.58953 
L 155.502472 149.58953 
L 155.83744 103.972747 
L 156.004924 153.933986 
L 156.339891 162.622897 
L 156.507375 149.58953 
L 156.674859 112.661658 
L 156.842342 175.656264 
L 157.009826 153.933986 
L 157.17731 193.034086 
L 157.344793 158.278442 
L 157.512277 64.872647 
L 157.679761 84.422697 
L 157.847245 158.278442 
L 158.014728 175.656264 
L 158.182212 149.58953 
L 158.349696 153.933986 
L 158.51718 162.622897 
L 158.684663 17.083636 
L 158.852147 158.278442 
L 159.019631 149.58953 
L 159.187115 162.622897 
L 159.354598 153.933986 
L 159.522082 153.933986 
L 159.689566 162.622897 
L 159.85705 153.933986 
L 160.024533 162.622897 
L 160.192017 153.933986 
L 160.526985 171.311808 
L 160.694468 17.083636 
L 160.861952 158.278442 
L 161.029436 149.58953 
L 161.19692 166.967353 
L 161.364403 27.944775 
L 161.531887 149.58953 
L 161.699371 158.278442 
L 161.866855 117.006114 
L 162.034338 149.58953 
L 162.201822 43.15037 
L 162.369306 149.58953 
L 162.536789 162.622897 
L 162.704273 158.278442 
L 162.871757 166.967353 
L 163.039241 166.967353 
L 163.206724 153.933986 
L 163.374208 149.58953 
L 163.541692 180.000719 
L 164.044143 158.278442 
L 164.211627 184.345175 
L 164.379111 162.622897 
L 164.546594 158.278442 
L 164.714078 149.58953 
L 165.049046 158.278442 
L 165.216529 153.933986 
L 165.384013 175.656264 
L 165.551497 117.006114 
L 165.718981 153.933986 
L 165.886464 153.933986 
L 166.053948 149.58953 
L 166.221432 149.58953 
L 166.388916 162.622897 
L 166.723883 149.58953 
L 167.058851 149.58953 
L 167.226334 153.933986 
L 167.393818 166.967353 
L 167.561302 158.278442 
L 167.728785 166.967353 
L 167.896269 162.622897 
L 168.063753 180.000719 
L 168.231237 158.278442 
L 168.39872 158.278442 
L 168.566204 62.70042 
L 168.733688 153.933986 
L 168.901172 149.58953 
L 169.068655 149.58953 
L 169.403623 158.278442 
L 169.571107 158.278442 
L 169.73859 153.933986 
L 169.906074 153.933986 
L 170.073558 162.622897 
L 170.241042 149.58953 
L 170.408525 149.58953 
L 170.576009 153.933986 
L 170.743493 149.58953 
L 171.413428 149.58953 
L 171.580912 153.933986 
L 171.748395 149.58953 
L 171.915879 153.933986 
L 172.083363 149.58953 
L 172.250847 149.58953 
L 172.41833 158.278442 
L 172.585814 149.58953 
L 172.753298 149.58953 
L 172.920781 153.933986 
L 173.088265 153.933986 
L 173.255749 149.58953 
L 173.423233 175.656264 
L 173.590716 153.933986 
L 173.925684 162.622897 
L 174.093168 149.58953 
L 174.595619 149.58953 
L 174.763103 166.967353 
L 174.930586 158.278442 
L 175.09807 166.967353 
L 175.265554 153.933986 
L 175.433038 149.58953 
L 175.600521 153.933986 
L 175.768005 149.58953 
L 176.772908 149.58953 
L 176.940391 130.039481 
L 177.107875 149.58953 
L 177.275359 56.183736 
L 177.442843 149.58953 
L 177.77781 149.58953 
L 177.945294 175.656264 
L 178.112777 153.933986 
L 178.280261 149.58953 
L 178.950196 149.58953 
L 179.11768 166.967353 
L 179.452647 149.58953 
L 179.620131 149.58953 
L 179.787615 158.278442 
L 179.955099 149.58953 
L 180.122582 162.622897 
L 180.290066 153.933986 
L 180.45755 121.350569 
L 180.625034 175.656264 
L 180.792517 88.767153 
L 180.960001 149.58953 
L 181.127485 23.60032 
L 181.294969 149.58953 
L 181.462452 125.695025 
L 181.629936 149.58953 
L 181.79742 149.58953 
L 181.964904 153.933986 
L 182.132387 149.58953 
L 182.299871 123.522797 
L 182.467355 158.278442 
L 182.634839 149.58953 
L 183.807225 149.58953 
L 183.974708 162.622897 
L 184.142192 166.967353 
L 184.309676 162.622897 
L 184.47716 149.58953 
L 184.812127 149.58953 
L 184.979611 88.767153 
L 185.147095 162.622897 
L 185.314578 149.58953 
L 185.482062 149.58953 
L 185.649546 19.255864 
L 185.81703 149.58953 
L 185.984513 149.58953 
L 186.151997 180.000719 
L 186.486965 153.933986 
L 186.654448 149.58953 
L 187.1569 162.622897 
L 187.324383 158.278442 
L 187.491867 125.695025 
L 187.659351 171.311808 
L 187.826835 153.933986 
L 187.994318 17.083636 
L 188.161802 158.278442 
L 188.329286 149.58953 
L 188.496769 171.311808 
L 188.664253 214.756364 
L 188.831737 17.083636 
L 189.166704 127.867253 
L 189.334188 158.278442 
L 189.501672 166.967353 
L 189.669156 149.58953 
L 190.004123 149.58953 
L 190.171607 136.556164 
L 190.339091 166.967353 
L 190.674058 149.58953 
L 190.841542 17.083636 
L 191.176509 153.933986 
L 191.343993 125.695025 
L 191.511477 17.083636 
L 191.678961 158.278442 
L 191.846444 149.58953 
L 192.013928 162.622897 
L 192.181412 162.622897 
L 192.348896 149.58953 
L 192.683863 149.58953 
L 192.851347 90.939381 
L 193.018831 149.58953 
L 193.186314 149.58953 
L 193.353798 158.278442 
L 193.521282 149.58953 
L 193.688765 175.656264 
L 193.856249 153.933986 
L 194.023733 108.317203 
L 194.191217 99.628292 
L 194.3587 145.245075 
L 194.526184 103.972747 
L 194.693668 149.58953 
L 194.861152 17.083636 
L 195.028635 149.58953 
L 195.196119 153.933986 
L 195.363603 166.967353 
L 195.531087 149.58953 
L 195.69857 149.58953 
L 195.866054 158.278442 
L 196.033538 149.58953 
L 196.201022 32.289231 
L 196.535989 158.278442 
L 196.703473 149.58953 
L 196.870957 51.839281 
L 197.03844 171.311808 
L 197.205924 153.933986 
L 197.373408 162.622897 
L 197.540892 17.083636 
L 197.708375 19.255864 
L 197.875859 132.211708 
L 198.043343 162.622897 
L 198.210827 158.278442 
L 198.37831 149.58953 
L 198.545794 149.58953 
L 198.713278 140.900619 
L 199.048245 162.622897 
L 199.215729 32.289231 
L 199.383213 49.667053 
L 199.550696 158.278442 
L 199.71818 21.428092 
L 199.885664 175.656264 
L 200.053148 171.311808 
L 200.220631 36.633686 
L 200.388115 71.389331 
L 200.555599 153.933986 
L 200.890566 17.083636 
L 201.05805 43.15037 
L 201.225534 149.58953 
L 201.393018 149.58953 
L 201.560501 90.939381 
L 201.727985 158.278442 
L 201.895469 149.58953 
L 202.062953 86.594925 
L 202.230436 158.278442 
L 202.39792 153.933986 
L 202.565404 188.68963 
L 202.732888 103.972747 
L 202.900371 149.58953 
L 203.067855 149.58953 
L 203.235339 166.967353 
L 203.402823 166.967353 
L 203.570306 149.58953 
L 203.73779 171.311808 
L 203.905274 158.278442 
L 204.072757 17.083636 
L 204.240241 125.695025 
L 204.407725 153.933986 
L 204.742692 62.70042 
L 204.910176 162.622897 
L 205.07766 40.978142 
L 205.245144 149.58953 
L 205.412627 30.117003 
L 205.580111 158.278442 
L 205.915079 130.039481 
L 206.082562 171.311808 
L 206.250046 158.278442 
L 206.41753 56.183736 
L 206.585014 171.311808 
L 206.752497 149.58953 
L 206.919981 17.083636 
L 207.254949 149.58953 
L 207.422432 162.622897 
L 207.7574 43.15037 
L 207.924884 153.933986 
L 208.092367 162.622897 
L 208.259851 112.661658 
L 208.427335 17.083636 
L 208.594819 19.255864 
L 208.762302 17.083636 
L 208.929786 36.633686 
L 209.09727 132.211708 
L 209.264753 17.083636 
L 209.432237 166.967353 
L 209.599721 40.978142 
L 209.767205 149.58953 
L 210.102172 162.622897 
L 210.269656 40.978142 
L 210.43714 149.58953 
L 210.604623 17.083636 
L 210.772107 60.528192 
L 210.939591 58.355964 
L 211.107075 47.494825 
L 211.274558 69.217103 
L 211.442042 56.183736 
L 211.609526 17.083636 
L 211.77701 27.944775 
L 211.944493 17.083636 
L 212.111977 171.311808 
L 212.279461 166.967353 
L 212.446945 82.25047 
L 212.614428 153.933986 
L 212.781912 17.083636 
L 212.949396 158.278442 
L 213.11688 108.317203 
L 213.451847 158.278442 
L 213.619331 166.967353 
L 213.786815 149.58953 
L 213.954298 110.489431 
L 214.121782 149.58953 
L 214.456749 158.278442 
L 214.624233 117.006114 
L 214.791717 27.944775 
L 214.959201 17.083636 
L 215.126684 17.083636 
L 215.294168 140.900619 
L 215.461652 40.978142 
L 215.629136 158.278442 
L 215.796619 112.661658 
L 215.964103 140.900619 
L 216.131587 17.083636 
L 216.299071 149.58953 
L 216.466554 158.278442 
L 216.801522 149.58953 
L 216.969006 153.933986 
L 217.136489 166.967353 
L 217.303973 54.011508 
L 217.471457 162.622897 
L 217.638941 106.144975 
L 217.806424 127.867253 
L 217.973908 17.083636 
L 218.141392 17.083636 
L 218.308876 27.944775 
L 218.476359 108.317203 
L 218.643843 17.083636 
L 218.811327 117.006114 
L 218.97881 19.255864 
L 219.146294 17.083636 
L 219.481262 34.461459 
L 219.648745 149.58953 
L 219.816229 149.58953 
L 219.983713 17.083636 
L 220.151197 153.933986 
L 220.31868 153.933986 
L 220.486164 149.58953 
L 220.653648 149.58953 
L 220.821132 17.083636 
L 220.988615 149.58953 
L 221.156099 25.772547 
L 221.323583 149.58953 
L 221.491067 162.622897 
L 221.65855 149.58953 
L 222.161002 19.255864 
L 222.328485 19.255864 
L 222.495969 45.322597 
L 222.663453 19.255864 
L 222.830937 17.083636 
L 222.99842 38.805914 
L 223.165904 103.972747 
L 223.333388 19.255864 
L 223.835839 149.58953 
L 224.003323 166.967353 
L 224.170806 80.078242 
L 224.33829 162.622897 
L 224.505774 17.083636 
L 224.673258 17.083636 
L 224.840741 171.311808 
L 225.008225 86.594925 
L 225.175709 132.211708 
L 225.343193 32.289231 
L 225.67816 149.58953 
L 226.180611 40.978142 
L 226.348095 158.278442 
L 226.515579 106.144975 
L 226.683063 90.939381 
L 226.850546 166.967353 
L 227.01803 49.667053 
L 227.185514 171.311808 
L 227.352998 45.322597 
L 227.520481 17.083636 
L 227.687965 153.933986 
L 227.855449 171.311808 
L 228.022933 17.083636 
L 228.190416 149.58953 
L 228.3579 162.622897 
L 228.525384 166.967353 
L 228.860351 17.083636 
L 229.027835 17.083636 
L 229.195319 38.805914 
L 229.530286 153.933986 
L 229.69777 17.083636 
L 229.865254 17.083636 
L 230.032737 21.428092 
L 230.200221 17.083636 
L 230.367705 51.839281 
L 230.535189 21.428092 
L 230.702672 123.522797 
L 230.870156 119.178342 
L 231.03764 149.58953 
L 231.205124 64.872647 
L 231.372607 153.933986 
L 231.707575 17.083636 
L 232.042542 17.083636 
L 232.210026 149.58953 
L 232.37751 149.58953 
L 232.544994 75.733786 
L 232.712477 103.972747 
L 232.879961 153.933986 
L 233.047445 117.006114 
L 233.382412 17.083636 
L 233.549896 77.906014 
L 233.71738 80.078242 
L 233.884864 80.078242 
L 234.052347 21.428092 
L 234.219831 149.58953 
L 234.722282 67.044875 
L 234.889766 17.083636 
L 235.05725 88.767153 
L 235.224733 36.633686 
L 235.392217 171.311808 
L 235.559701 67.044875 
L 235.727185 149.58953 
L 235.894668 17.083636 
L 236.062152 106.144975 
L 236.39712 17.083636 
L 236.564603 51.839281 
L 236.732087 171.311808 
L 237.067055 17.083636 
L 237.234538 27.944775 
L 237.402022 149.58953 
L 237.569506 149.58953 
L 237.73699 32.289231 
L 238.239441 149.58953 
L 238.406925 73.561558 
L 238.574408 149.58953 
L 238.741892 153.933986 
L 238.909376 27.944775 
L 239.07686 143.072847 
L 239.244343 153.933986 
L 239.579311 17.083636 
L 239.914278 17.083636 
L 240.081762 158.278442 
L 240.249246 90.939381 
L 240.416729 130.039481 
L 240.584213 17.083636 
L 240.751697 25.772547 
L 240.919181 17.083636 
L 241.086664 158.278442 
L 241.421632 23.60032 
L 241.589116 149.58953 
L 241.756599 17.083636 
L 241.924083 17.083636 
L 242.091567 23.60032 
L 242.259051 17.083636 
L 242.426534 130.039481 
L 242.594018 17.083636 
L 242.761502 17.083636 
L 242.928986 51.839281 
L 243.096469 17.083636 
L 243.263953 32.289231 
L 243.431437 17.083636 
L 243.598921 17.083636 
L 244.101372 140.900619 
L 244.268856 17.083636 
L 244.436339 149.58953 
L 244.603823 25.772547 
L 244.771307 145.245075 
L 244.93879 75.733786 
L 245.106274 73.561558 
L 245.273758 82.25047 
L 245.608725 17.083636 
L 245.943693 17.083636 
L 246.111177 149.58953 
L 246.27866 158.278442 
L 246.446144 121.350569 
L 246.613628 19.255864 
L 246.781112 17.083636 
L 246.948595 121.350569 
L 247.116079 17.083636 
L 247.283563 158.278442 
L 247.451047 17.083636 
L 247.61853 17.083636 
L 247.786014 58.355964 
L 247.953498 153.933986 
L 248.120982 112.661658 
L 248.288465 17.083636 
L 248.455949 17.083636 
L 248.623433 43.15037 
L 248.790917 17.083636 
L 248.9584 121.350569 
L 249.125884 17.083636 
L 249.460852 82.25047 
L 249.628335 19.255864 
L 249.795819 17.083636 
L 250.130786 90.939381 
L 250.29827 17.083636 
L 250.465754 149.58953 
L 250.633238 95.283836 
L 250.800721 149.58953 
L 250.968205 158.278442 
L 251.135689 17.083636 
L 251.303173 153.933986 
L 251.470656 108.317203 
L 251.63814 17.083636 
L 251.805624 95.283836 
L 251.973108 114.833886 
L 252.140591 17.083636 
L 252.308075 64.872647 
L 252.475559 149.58953 
L 252.643043 51.839281 
L 252.810526 88.767153 
L 252.97801 69.217103 
L 253.145494 34.461459 
L 253.312978 153.933986 
L 253.480461 17.083636 
L 253.647945 71.389331 
L 253.815429 162.622897 
L 253.982913 17.083636 
L 254.652848 17.083636 
L 254.820331 62.70042 
L 254.987815 17.083636 
L 255.490266 17.083636 
L 255.65775 21.428092 
L 255.825234 19.255864 
L 255.992717 45.322597 
L 256.160201 36.633686 
L 256.327685 71.389331 
L 256.662652 30.117003 
L 256.830136 34.461459 
L 256.99762 17.083636 
L 257.165104 17.083636 
L 257.332587 21.428092 
L 257.500071 17.083636 
L 257.835039 17.083636 
L 258.170006 117.006114 
L 258.33749 36.633686 
L 258.504974 17.083636 
L 259.007425 17.083636 
L 259.174909 56.183736 
L 259.342392 17.083636 
L 259.509876 162.622897 
L 259.67736 149.58953 
L 259.844844 17.083636 
L 260.012327 17.083636 
L 260.179811 30.117003 
L 260.347295 132.211708 
L 260.514778 17.083636 
L 260.682262 17.083636 
L 260.849746 171.311808 
L 261.01723 17.083636 
L 261.184713 17.083636 
L 261.352197 49.667053 
L 261.519681 17.083636 
L 261.687165 17.083636 
L 261.854648 127.867253 
L 262.022132 17.083636 
L 262.189616 130.039481 
L 262.3571 32.289231 
L 262.524583 17.083636 
L 262.692067 17.083636 
L 262.859551 99.628292 
L 263.027035 17.083636 
L 263.362002 95.283836 
L 263.529486 17.083636 
L 264.199421 17.083636 
L 264.366905 38.805914 
L 264.534388 36.633686 
L 264.701872 36.633686 
L 264.869356 17.083636 
L 265.03684 30.117003 
L 265.204323 17.083636 
L 265.371807 75.733786 
L 265.539291 17.083636 
L 265.706774 140.900619 
L 265.874258 17.083636 
L 266.041742 17.083636 
L 266.209226 86.594925 
L 266.376709 17.083636 
L 266.544193 73.561558 
L 266.711677 17.083636 
L 266.879161 153.933986 
L 267.046644 108.317203 
L 267.214128 19.255864 
L 267.381612 117.006114 
L 267.716579 17.083636 
L 267.884063 58.355964 
L 268.051547 43.15037 
L 268.219031 56.183736 
L 268.386514 17.083636 
L 269.056449 17.083636 
L 269.223933 45.322597 
L 269.558901 17.083636 
L 270.228836 17.083636 
L 270.396319 84.422697 
L 270.563803 17.083636 
L 270.731287 17.083636 
L 270.89877 43.15037 
L 271.066254 21.428092 
L 271.401222 36.633686 
L 271.568705 17.083636 
L 271.736189 121.350569 
L 271.903673 17.083636 
L 272.23864 17.083636 
L 272.406124 125.695025 
L 272.573608 17.083636 
L 273.076059 17.083636 
L 273.243543 27.944775 
L 273.411027 17.083636 
L 273.57851 17.083636 
L 273.745994 21.428092 
L 273.913478 17.083636 
L 274.080962 19.255864 
L 274.248445 17.083636 
L 274.415929 153.933986 
L 274.583413 17.083636 
L 274.750897 56.183736 
L 274.91838 38.805914 
L 275.085864 140.900619 
L 275.253348 17.083636 
L 275.420832 17.083636 
L 275.588315 69.217103 
L 275.755799 25.772547 
L 275.923283 17.083636 
L 276.090766 30.117003 
L 276.25825 166.967353 
L 276.593218 17.083636 
L 276.760701 17.083636 
L 276.928185 25.772547 
L 277.095669 108.317203 
L 277.263153 17.083636 
L 277.430636 58.355964 
L 277.59812 17.083636 
L 277.765604 17.083636 
L 277.933088 19.255864 
L 278.100571 25.772547 
L 278.268055 17.083636 
L 278.435539 158.278442 
L 278.603023 17.083636 
L 278.770506 17.083636 
L 278.93799 34.461459 
L 279.105474 108.317203 
L 279.272958 17.083636 
L 279.440441 17.083636 
L 279.607925 158.278442 
L 279.942893 17.083636 
L 280.110376 158.278442 
L 280.27786 125.695025 
L 280.445344 17.083636 
L 280.612828 17.083636 
L 280.780311 67.044875 
L 280.947795 17.083636 
L 281.282762 88.767153 
L 281.450246 17.083636 
L 281.61773 62.70042 
L 281.785214 17.083636 
L 281.952697 58.355964 
L 282.120181 58.355964 
L 282.287665 17.083636 
L 282.622632 17.083636 
L 282.790116 34.461459 
L 282.9576 17.083636 
L 283.292567 17.083636 
L 283.460051 130.039481 
L 283.627535 17.083636 
L 283.795019 166.967353 
L 283.962502 17.083636 
L 284.29747 17.083636 
L 284.464954 49.667053 
L 284.632437 17.083636 
L 285.134889 17.083636 
L 285.302372 43.15037 
L 285.469856 17.083636 
L 285.63734 162.622897 
L 285.804824 17.083636 
L 285.972307 17.083636 
L 286.139791 90.939381 
L 286.307275 17.083636 
L 286.474758 58.355964 
L 286.642242 27.944775 
L 286.809726 138.728392 
L 286.97721 17.083636 
L 287.144693 47.494825 
L 287.479661 17.083636 
L 287.647145 17.083636 
L 287.814628 40.978142 
L 287.982112 17.083636 
L 288.149596 69.217103 
L 288.484563 38.805914 
L 288.652047 67.044875 
L 288.819531 21.428092 
L 288.987015 47.494825 
L 289.154498 99.628292 
L 289.489466 17.083636 
L 289.65695 58.355964 
L 289.824433 17.083636 
L 289.991917 17.083636 
L 290.159401 153.933986 
L 290.326885 23.60032 
L 290.494368 45.322597 
L 290.661852 82.25047 
L 290.829336 90.939381 
L 290.99682 119.178342 
L 291.164303 58.355964 
L 291.331787 51.839281 
L 291.666754 17.083636 
L 291.834238 17.083636 
L 292.001722 125.695025 
L 292.169206 17.083636 
L 292.336689 17.083636 
L 292.504173 88.767153 
L 292.671657 19.255864 
L 293.006624 80.078242 
L 293.174108 17.083636 
L 293.509076 17.083636 
L 293.676559 158.278442 
L 293.844043 127.867253 
L 294.011527 43.15037 
L 294.179011 80.078242 
L 294.346494 23.60032 
L 294.513978 17.083636 
L 294.681462 27.944775 
L 294.848946 56.183736 
L 295.016429 25.772547 
L 295.183913 17.083636 
L 295.351397 54.011508 
L 295.518881 58.355964 
L 295.853848 17.083636 
L 296.021332 121.350569 
L 296.188816 17.083636 
L 296.85875 17.083636 
L 297.026234 99.628292 
L 297.193718 17.083636 
L 297.528685 17.083636 
L 297.863653 101.800519 
L 298.031137 17.083636 
L 298.19862 99.628292 
L 298.366104 30.117003 
L 298.533588 47.494825 
L 298.701072 49.667053 
L 298.868555 54.011508 
L 299.036039 17.083636 
L 299.371007 17.083636 
L 299.53849 117.006114 
L 299.705974 17.083636 
L 299.873458 17.083636 
L 300.040942 58.355964 
L 300.208425 17.083636 
L 300.375909 17.083636 
L 300.543393 73.561558 
L 300.710877 30.117003 
L 300.87836 17.083636 
L 301.045844 30.117003 
L 301.213328 17.083636 
L 301.715779 17.083636 
L 301.883263 25.772547 
L 302.050746 138.728392 
L 302.21823 17.083636 
L 302.720681 17.083636 
L 302.888165 49.667053 
L 303.055649 17.083636 
L 303.223133 58.355964 
L 303.390616 17.083636 
L 304.228035 17.083636 
L 304.395519 84.422697 
L 304.563003 62.70042 
L 304.730486 17.083636 
L 304.89797 77.906014 
L 305.065454 17.083636 
L 305.567905 17.083636 
L 305.735389 27.944775 
L 305.902873 17.083636 
L 307.745194 17.083636 
L 307.912677 71.389331 
L 308.080161 17.083636 
L 308.247645 17.083636 
L 308.415129 30.117003 
L 308.582612 17.083636 
L 308.750096 17.083636 
L 308.91758 60.528192 
L 309.085064 60.528192 
L 309.252547 158.278442 
L 309.420031 17.083636 
L 309.754999 17.083636 
L 309.922482 49.667053 
L 310.25745 17.083636 
L 310.759901 17.083636 
L 310.927385 88.767153 
L 311.094869 17.083636 
L 311.429836 17.083636 
L 311.59732 30.117003 
L 311.764803 17.083636 
L 313.439641 17.083636 
L 313.607125 36.633686 
L 313.774608 17.083636 
L 313.942092 23.60032 
L 314.109576 17.083636 
L 316.286865 17.083636 
L 316.454348 27.944775 
L 316.621832 17.083636 
L 316.789316 17.083636 
L 316.956799 34.461459 
L 317.124283 17.083636 
L 317.626734 17.083636 
L 317.794218 30.117003 
L 317.961702 17.083636 
L 318.799121 17.083636 
L 318.966604 38.805914 
L 319.134088 17.083636 
L 319.301572 17.083636 
L 319.469056 21.428092 
L 319.636539 17.083636 
L 321.478861 17.083636 
L 321.646344 149.58953 
L 321.981312 17.083636 
L 322.81873 17.083636 
L 322.986214 30.117003 
L 323.153698 17.083636 
L 323.321182 17.083636 
L 323.488665 45.322597 
L 323.656149 49.667053 
L 323.823633 17.083636 
L 323.991117 17.083636 
L 324.1586 19.255864 
L 324.326084 49.667053 
L 324.493568 17.083636 
L 324.996019 17.083636 
L 325.163503 38.805914 
L 325.330987 17.083636 
L 326.335889 17.083636 
L 326.503373 60.528192 
L 326.670857 17.083636 
L 326.83834 17.083636 
L 327.005824 36.633686 
L 327.173308 17.083636 
L 327.340791 30.117003 
L 327.508275 17.083636 
L 328.345694 17.083636 
L 328.513178 19.255864 
L 328.680661 17.083636 
L 328.848145 17.083636 
L 329.015629 95.283836 
L 329.183113 75.733786 
L 329.350596 17.083636 
L 329.51808 17.083636 
L 329.685564 40.978142 
L 330.020531 17.083636 
L 330.355499 17.083636 
L 330.522983 51.839281 
L 330.690466 17.083636 
L 332.030336 17.083636 
L 332.19782 43.15037 
L 332.365304 17.083636 
L 335.547495 17.083636 
L 335.714979 21.428092 
L 335.882462 17.083636 
L 336.049946 17.083636 
L 336.384914 38.805914 
L 336.552397 17.083636 
L 336.887365 17.083636 
L 337.054849 58.355964 
L 337.222332 17.083636 
L 337.5573 17.083636 
L 337.724783 25.772547 
L 337.892267 17.083636 
L 341.074458 17.083636 
L 341.241942 45.322597 
L 341.409426 17.083636 
L 341.57691 17.083636 
L 341.744393 27.944775 
L 341.911877 17.083636 
L 344.089166 17.083636 
L 344.424133 38.805914 
L 344.591617 17.083636 
L 345.261552 17.083636 
L 345.429036 47.494825 
L 345.596519 17.083636 
L 345.764003 130.039481 
L 345.931487 17.083636 
L 346.601422 17.083636 
L 346.768906 32.289231 
L 346.936389 17.083636 
L 348.611227 17.083636 
L 348.77871 56.183736 
L 348.946194 17.083636 
L 350.955999 17.083636 
L 351.123483 30.117003 
L 351.290967 17.083636 
L 354.305674 17.083636 
L 354.473158 19.255864 
L 354.640641 17.083636 
L 357.320381 17.083636 
L 357.487865 64.872647 
L 357.655349 17.083636 
L 358.1578 17.083636 
L 358.325284 40.978142 
L 358.492767 17.083636 
L 360.000121 17.083636 
L 360.167605 27.944775 
L 360.335089 17.083636 
L 360.502572 17.083636 
L 360.670056 49.667053 
L 360.83754 17.083636 
L 364.85715 17.083636 
L 365.024633 67.044875 
L 365.192117 17.083636 
L 367.871857 17.083636 
L 368.039341 43.15037 
L 368.206825 17.083636 
L 369.714178 17.083636 
L 369.881662 58.355964 
L 370.049146 17.083636 
L 374.403723 17.083636 
L 374.571207 101.800519 
L 374.73869 17.083636 
L 377.753398 17.083636 
L 377.920882 80.078242 
L 378.088365 17.083636 
L 379.428235 17.083636 
L 379.595719 51.839281 
L 379.763203 17.083636 
L 383.615329 17.083636 
L 383.615329 17.083636 
" style="fill:none;stroke:#1f77b4;stroke-linecap:square;stroke-width:1.5;"/>
   </g>
   <g id="patch_3">
    <path d="M 48.982813 224.64 
L 48.982813 7.2 
" style="fill:none;stroke:#000000;stroke-linecap:square;stroke-linejoin:miter;stroke-width:0.8;"/>
   </g>
   <g id="patch_4">
    <path d="M 383.782813 224.64 
L 383.782813 7.2 
" style="fill:none;stroke:#000000;stroke-linecap:square;stroke-linejoin:miter;stroke-width:0.8;"/>
   </g>
   <g id="patch_5">
    <path d="M 48.982813 224.64 
L 383.782812 224.64 
" style="fill:none;stroke:#000000;stroke-linecap:square;stroke-linejoin:miter;stroke-width:0.8;"/>
   </g>
   <g id="patch_6">
    <path d="M 48.982813 7.2 
L 383.782812 7.2 
" style="fill:none;stroke:#000000;stroke-linecap:square;stroke-linejoin:miter;stroke-width:0.8;"/>
   </g>
  </g>
 </g>
 <defs>
  <clipPath id="p9497e10930">
   <rect height="217.44" width="334.8" x="48.982813" y="7.2"/>
  </clipPath>
 </defs>
</svg>
